<svg xmlns="http://www.w3.org/2000/svg" viewBox="0 0 49.15 49.11"><title>Risorsa 2</title><g id="Livello_2" data-name="Livello 2"><g id="Layer_3" data-name="Layer 3"><circle cx="24.55" cy="24.54" r="22.61" style="fill:#58595b"/><polyline points="9.43 6.51 10.9 6.51 12.44 6.51 18.5 6.51 21.73 6.51 24.55 6.51 27.11 6.51 30.61 6.51 36.66 6.51 38.19 6.51 39.67 6.51" style="fill:none;stroke:#fffeff;stroke-miterlimit:10;stroke-width:0.75px"/><polyline points="4.29 12.57 5.37 12.57 6.38 12.57 12.44 12.57 18.5 12.57 24.55 12.57 30.61 12.57 36.66 12.57 42.72 12.57 43.73 12.57 44.81 12.57" style="fill:none;stroke:#fffeff;stroke-miterlimit:10;stroke-width:0.75px"/><polyline points="1.18 18.62 1.76 18.62 2.73 18.62 6.38 18.62 12.44 18.62 18.5 18.62 24.55 18.62 30.61 18.62 36.66 18.62 42.72 18.62 46.38 18.62 47.34 18.62 47.77 18.62 48.77 18.62" style="fill:none;stroke:#fffeff;stroke-miterlimit:10;stroke-width:0.75px"/><polyline points="48.77 24.68 48.47 24.68 48.09 24.68 47.77 24.68 47.16 24.68 42.72 24.68 41.01 24.68 36.66 24.68 30.61 24.68 24.55 24.68 18.5 24.68 12.44 24.68 7.83 24.68 6.38 24.68 1.94 24.68 1.18 24.68 1.01 24.68 0.38 24.68 0.33 24.68" style="fill:none;stroke:#fffeff;stroke-miterlimit:10;stroke-width:0.75px"/><polyline points="1.18 30.74 1.84 30.74 2.81 30.74 6.38 30.74 12.44 30.74 18.5 30.74 24.55 30.74 30.61 30.74 36.66 30.74 42.72 30.74 46.3 30.74 47.26 30.74 47.77 30.74 48.77 30.74" style="fill:none;stroke:#fffeff;stroke-miterlimit:10;stroke-width:0.75px"/><polyline points="44.66 36.79 43.55 36.79 42.72 36.79 36.66 36.79 30.61 36.79 24.55 36.79 18.5 36.79 12.44 36.79 6.38 36.79 5.54 36.79 4.45 36.79" style="fill:none;stroke:#fffeff;stroke-miterlimit:10;stroke-width:0.75px"/><polyline points="6.38 42.85 9.77 42.85 11.29 42.85 12.44 42.85 18.5 42.85 21.73 42.85 24.55 42.85 27.11 42.85 30.61 42.85 36.66 42.85 37.81 42.85 39.34 42.85" style="fill:none;stroke:#fffeff;stroke-miterlimit:10;stroke-width:0.75px"/><polyline points="48.77 30.74 48.77 24.68 48.77 18.62" style="fill:none;stroke:#fffeff;stroke-miterlimit:10;stroke-width:0.75px"/><polyline points="42.72 39.51 42.72 38 42.72 36.79 42.72 30.76 42.72 30.74 42.72 27.38 42.72 24.68 42.72 21.98 42.72 18.62 42.72 18.61 42.72 12.57 42.72 11.08 42.72 9.57" style="fill:none;stroke:#fffeff;stroke-miterlimit:10;stroke-width:0.75px"/><polyline points="36.66 4.36 36.66 5.45 36.66 6.51 36.66 12.57 36.66 18.61 36.66 18.62 36.66 24.68 36.66 30.74 36.66 30.76 36.66 36.79 36.66 42.85 36.66 43.63 36.66 44.72" style="fill:none;stroke:#fffeff;stroke-miterlimit:10;stroke-width:0.75px"/><polyline points="30.61 1.79 30.61 2.76 30.61 6.51 30.61 12.57 30.61 18.61 30.61 18.62 30.61 24.68 30.61 30.74 30.61 30.76 30.61 36.79 30.61 42.85 30.61 46.33 30.61 47.29" style="fill:none;stroke:#fffeff;stroke-miterlimit:10;stroke-width:0.75px"/><polyline points="24.55 48.9 24.55 48.73 24.55 48.08 24.55 47.16 24.55 42.85 24.55 41.26 24.55 36.79 24.55 30.76 24.55 30.74 24.55 24.68 24.55 18.62 24.55 18.61 24.55 12.57 24.55 8.1 24.55 6.51 24.55 1.93 24.55 1 24.55 0.63 24.55 0.46" style="fill:none;stroke:#fffeff;stroke-miterlimit:10;stroke-width:0.75px"/><polyline points="18.5 1.79 18.5 2.76 18.5 6.51 18.5 12.57 18.5 18.61 18.5 18.62 18.5 24.68 18.5 30.74 18.5 30.76 18.5 36.79 18.5 42.85 18.5 46.33 18.5 47.29" style="fill:none;stroke:#fffeff;stroke-miterlimit:10;stroke-width:0.75px"/><polyline points="12.44 44.72 12.44 43.63 12.44 42.85 12.44 36.79 12.44 30.76 12.44 30.74 12.44 24.68 12.44 18.62 12.44 18.61 12.44 12.57 12.44 6.51 12.44 5.45 12.44 4.36" style="fill:none;stroke:#fffeff;stroke-miterlimit:10;stroke-width:0.75px"/><polyline points="6.38 42.85 6.38 39.51 6.38 38 6.38 36.79 6.38 30.76 6.38 30.74 6.38 27.36 6.38 24.68 6.38 22 6.38 18.62 6.38 18.61 6.38 12.57 6.38 11.08 6.38 9.57" style="fill:none;stroke:#fffeff;stroke-miterlimit:10;stroke-width:0.75px"/><rect x="1.17" y="18.61" width="46.59" height="12.15" style="fill:#58595b;stroke:#fff;stroke-miterlimit:10;stroke-width:0.75px"/><path d="M7.84,23.67v2a1.69,1.69,0,0,1-1.45,1.67l-.23,0H2.05a1.57,1.57,0,0,1-.88-.26h0a1.68,1.68,0,0,1-.78-1.42v-2a1.71,1.71,0,0,1,.75-1.41l0,0A1.57,1.57,0,0,1,2.05,22h4.1l.23,0A1.69,1.69,0,0,1,7.84,23.67Z" style="fill:#929596"/><rect x="41" y="21.98" width="7.47" height="5.4" rx="1.69" ry="1.69" transform="translate(89.47 49.36) rotate(-180)" style="fill:#929596"/><rect x="20.69" y="42.3" width="7.47" height="5.4" rx="1.69" ry="1.69" transform="translate(69.42 20.58) rotate(90)" style="fill:#929596"/><path d="M27.13,6.41a.34.34,0,0,1,0,.1A1.69,1.69,0,0,1,25.44,8.1h-2a1.69,1.69,0,0,1-1.68-1.59.34.34,0,0,1,0-.1V2.32a.75.75,0,0,1,0-.21,1.6,1.6,0,0,1,.5-1A1.66,1.66,0,0,1,23.4.63h2a1.63,1.63,0,0,1,1.14.46,1.6,1.6,0,0,1,.52,1,1.94,1.94,0,0,1,0,.24Z" style="fill:#929596"/><path d="M48.09,24.54v.14c0,.74,0,1.47-.11,2.2h0a15.21,15.21,0,0,1-.2,1.51,22.08,22.08,0,0,1-.51,2.34v0a23.13,23.13,0,0,1-2.59,6,24.83,24.83,0,0,1-1.94,2.72,23.81,23.81,0,0,1-6,5.21A23.47,23.47,0,0,1,26.84,48c-.76.07-1.52.11-2.3.11A24.1,24.1,0,0,1,22,47.94a23.62,23.62,0,0,1-3.49-.65,23.51,23.51,0,0,1-8.73-4.44,22.71,22.71,0,0,1-3.38-3.34,24.83,24.83,0,0,1-1.94-2.72,23.13,23.13,0,0,1-2.59-6v0a22.29,22.29,0,0,1-.67-3.48.77.77,0,0,1,0-.15C1.07,26.31,1,25.5,1,24.68v-.14c0-.77,0-1.53.11-2.28,0-.15,0-.29,0-.44a22.57,22.57,0,0,1,.59-3.2h0A23.5,23.5,0,0,1,9.42,6.51a23.81,23.81,0,0,1,3-2.15,23.52,23.52,0,0,1,9.8-3.25C23,1,23.77,1,24.54,1s1.36,0,2,.09a22.34,22.34,0,0,1,4,.7,23.09,23.09,0,0,1,6.06,2.57,23.81,23.81,0,0,1,6,5.21,23.74,23.74,0,0,1,4.62,9h0c.17.67.32,1.36.43,2.06s.18,1.21.23,1.82h0C48.05,23.18,48.09,23.85,48.09,24.54Z" style="fill:none;stroke:#939598;stroke-miterlimit:10;stroke-width:2px"/></g></g></svg>