<?xml version="1.0" encoding="utf-8"?>
<!-- Generator: Adobe Illustrator 21.0.1, SVG Export Plug-In . SVG Version: 6.00 Build 0)  -->
<!DOCTYPE svg PUBLIC "-//W3C//DTD SVG 1.1//EN" "http://www.w3.org/Graphics/SVG/1.1/DTD/svg11.dtd">
<svg version="1.1" id="Livello_1" xmlns="http://www.w3.org/2000/svg" xmlns:xlink="http://www.w3.org/1999/xlink" x="0px" y="0px"
	 viewBox="0 0 1300 600" style="enable-background:new 0 0 1300 600;" xml:space="preserve">
<style type="text/css">
	.st0{fill:#288B59;}
	.st1{fill:#961E24;}
	.st2{fill:#1B6E3B;}
	.st3{fill:#124667;}
</style>
<g id="Logo">
	<g id="technologies">
		<g>
			<path class="st0" d="M828.6,452.9c0,1.8,0.4,3.8,1.1,5.5c1.4,3.6,1.4,3.6,5.1,5.3c2,0.5,4.7,1,4.9-0.8c0.2-1.5,0-3,0-4.5
				c-3.6-0.5-5.5-2.4-5.5-6c-0.1-6.2,0-12.4,0-18.6c0-0.2,0.1-0.3,0.1-0.6c1.8,0,3.5,0,5.2,0c2.2,0,3.6-1.1,3.8-3.3
				c0.2-1.4,0-2.9,0-4.6c-3.1,0-6.1,0-9.3,0c0-4.8,0-9.5,0-14.3c-1.3,0-0.4,0-1.6,0c-2.6,0.1-4,1.5-4,4.1c0,3.8,0,7.5,0,11.3
				L828.6,452.9z"/>
		</g>
		<path class="st0" d="M889.8,445.7L889.8,445.7L889.8,445.7c0.1-0.8,0.1-1.6,0.1-2.4c0-0.8,0-1.6-0.1-2.4v-0.3h0
			c-1.3-10.6-9.3-18.9-20.2-18.9c-11.8,0-20.4,9.6-20.4,21.5s8.6,21.5,20.4,21.5c9.1,0,16.8-5.7,19.9-13.7h-5.7
			c-2.7,5-8,8.5-14.1,8.5c-8.1,0-14.8-6-16-13.9L889.8,445.7z M869.6,426.8c8,0,14.6,5.9,15.9,13.5h-31.8
			C855,432.7,861.6,426.8,869.6,426.8z"/>
		<path class="st0" d="M928.7,452.4c-2.7,4.3-7.4,7.2-12.6,7.2c-8.4,0-15.1-7.2-15.1-16.1c0-8.9,6.8-16.1,15.1-16.1
			c6.2,0,11.6,4,13.9,9.7h5.2c-2.6-8.6-10.1-14.8-19.1-14.8c-11.1,0-20,9.5-20,21.2s9,21.2,20,21.2c8.1,0,15-5.1,18.2-12.4H928.7z"
			/>
		<path class="st0" d="M983.7,464h5l0-21.7c0-8,6-14.8,13.9-15.3c0.3,0,0.6,0,0.9,0c3.8,0,7,1.4,9.4,3.7c2.9,2.7,4.6,6.6,4.6,10.5
			v22.9h5v-24.1c0-1.8-0.3-3.5-0.9-5.2c-2.9-7.5-9.7-12.8-18.2-12.8c-8.4,0-15.6,5.2-18.7,12.5c-0.8,1.8-1.1,3.8-1.1,5.8L983.7,464z
			"/>
		<path class="st0" d="M1049.9,422.8c-11.3,0-20.9,9.3-20.9,20.7s9.6,20.7,20.9,20.7s21.1-9.3,21.1-20.7S1061.3,422.8,1049.9,422.8z
			 M1049.9,459.1c-8.6,0-15.9-7-15.9-15.6c0-8.6,7.4-15.6,15.9-15.6s16.1,7,16.1,15.6C1066.1,452.1,1058.5,459.1,1049.9,459.1z"/>
		<path class="st0" d="M1077,439.1v-27.4h4.5v26.7c0,5.5,0.9,11.6,3.8,15.1c3.3,4,7.6,6.2,12.2,6.7v3.8c-7.6,1.3-16-5.5-18.5-11.9
			C1077.9,449,1077,442.7,1077,439.1z"/>
		<path class="st0" d="M1124.1,422.8c-11.3,0-20.9,9.3-20.9,20.7s9.6,20.7,20.9,20.7c11.3,0,21.1-9.3,21.1-20.7
			S1135.4,422.8,1124.1,422.8z M1124.1,459.1c-8.6,0-15.9-7-15.9-15.6c0-8.6,7.4-15.6,15.9-15.6c8.6,0,16.1,7,16.1,15.6
			C1140.3,452.1,1132.7,459.1,1124.1,459.1z"/>
		<path class="st0" d="M1171.5,421.1c-11.5,0-20.9,9.4-20.9,21c0,11.6,9.3,21,20.9,21c6.7,0,12.6-3.1,16.4-8l-0.7,13.2h0.1
			c-1.3,7.6-7.9,13.3-15.8,13.3c-8.8,0-16-7.2-16-16.2h-4.9c0,11.6,9.3,21,20.9,21c10.6,0,19.3-7.9,20.7-18.2h0.2v-26.2
			C1192.3,430.5,1183,421.1,1171.5,421.1z M1171.5,458.3c-8.8,0-16-7.2-16-16.2s7.2-16.2,16-16.2c8.8,0,16,7.2,16,16.2
			S1180.3,458.3,1171.5,458.3z"/>
		<g>
			<path class="st0" d="M1198.1,421.6c0,10.6,0,21,0,31.5c0,2.4,0,4.9,0,7.3c0,2.1,0.8,3.5,2.4,3.7c1.2,0.2,2.4,0,3.7,0v-44.5l0-1.7
				C1202.2,419.2,1200.2,420.5,1198.1,421.6z"/>
			<path class="st0" d="M1204.2,414.3v-2.5c-3.6-0.5-5.7,0-5.9,3l-0.1,3.4C1200.2,417,1202.2,415.6,1204.2,414.3z"/>
		</g>
		<path class="st0" d="M1249.7,446.1L1249.7,446.1c0.1-0.8,0.1-1.6,0.1-2.4c0-0.8,0-1.6-0.1-2.4v-0.3h0
			c-1.3-10.6-9.3-18.9-20.2-18.9c-11.8,0-20.4,9.6-20.4,21.5c0,11.9,8.6,21.5,20.4,21.5c9.1,0,16.8-5.7,19.9-13.7h-5.7
			c-2.7,5-8,8.5-14.1,8.5c-8.1,0-14.8-6-16-13.9L1249.7,446.1z M1229.5,427.2c8,0,14.6,5.9,15.9,13.5h-31.8
			C1214.9,433.1,1221.5,427.2,1229.5,427.2z"/>
		<g>
			<path class="st0" d="M1281.1,462c-2.3,0.9-4.6,1.5-7,1.7"/>
			<path class="st0" d="M1261.7,444.1c-0.4,0-0.7-0.1-1.1-0.1l0.1,0.1c0.1,0,0.1,0,0.2,0C1261.1,444.1,1261.4,444.1,1261.7,444.1z"
				/>
			<path class="st0" d="M1283.3,452.1c-0.4,1.9-2.9,3.6-4.6,4.1c-2.9,0.9-6.9,1.9-9.9,1.4c-0.1,0-0.1,0-0.2,0c-2.2-0.4-3-1-4.9-2.2
				c-1.9-1.2-3.1-3.7-4.5-3.1c-1.3,0.6-2.6,1.3-4,1.9c1,2.6,2.9,5,5.5,6.4c4.4,2.4,8.9,3.4,13.4,3c2.3-0.2,4.6-0.8,7-1.7
				c0.4-0.1,0.7-0.3,1.1-0.5c1.6-0.7,3-1.8,4-3c2.8-3.4,3.4-8.2,1.3-12.2c-2.3-4.3-6.1-6.1-10.8-6.5c-3.2-0.3-7.7-0.3-10.9-0.7
				c-2.8-0.3-4.2-1.9-4.2-4.1c0.1-1.7,0.4-4.8,1.8-5.4c2.9-1.3,5.2-1.3,7.2-1.4c3.5-0.2,7.8,0.8,10.4,3.7c0.9,1,3.3,2.3,4.5,1.9
				c1.5-0.6,1.4-0.8,2.9-1.6c-0.9-2.3-2.2-4-3.9-5.5c-3-2.5-6.6-3.6-10.5-3.9c-4.3-0.3-8.6,0.1-12.4,2.2c-7.5,4.2-8.2,13.4-2.7,18.2
				c0,0,1.7,1,3.2,1.1c1.5,0.1,11.4,0.5,14.3,1c4.5,0.8,6.2,3.3,6.8,4.6C1283.4,450.6,1283.3,452.1,1283.3,452.1z"/>
		</g>
		<path class="st0" d="M977,434.7c-2.9-7-9.3-10.8-17.9-10.8c-5.7,0-10.7,1.6-14.3,4.7l0-0.5l0-0.1c0-4.4,0-10.8,0-15.1c0,0,0,0,0,0
			v0l0,0c-0.9,0-1.7,0-2.4,0c-3,0-2.7,1.1-2.8,4l0,0c0,0,0,0.1,0,0.1c0,0,0,0.1,0,0.1c0,12,0,26.2,0,38.2l0,0c0,1.6,0,3.2,0,4.9
			c0,2.2-0.4,4.3,1.2,4.5c1.3,0.2,3.7,0.1,5,0.1l-0.1-26.4c1.4-5.5,6.3-9.2,12.6-9.5c0.3,0,0.5,0,0.8,0c3.6,0,6.6,1.3,8.9,3.4
			c2.7,2.5,3.9,4.9,3.9,8.5l-0.1,24h6.2v-25.2C977.9,437.9,977.6,436.2,977,434.7z"/>
	</g>
	<g id="vulcano">
		<polygon class="st1" points="774.5,378.6 743.2,300.8 753.7,300.8 780.1,366.4 806.6,300.8 817.1,300.8 785.7,378.6 		"/>
		<path class="st1" d="M1126.9,378.8h9.4l0-39.8c0-14.6,11.3-27.2,26-28c0.5,0,1.1,0,1.6,0c7.1,0,13.1,2.5,17.6,6.8
			c5.4,5,8.7,12.1,8.7,19.3v42.1h9.4v-44.2c0-3.3-0.5-6.5-1.7-9.6c-5.4-13.7-18.1-23.6-34-23.6c-15.7,0-29.1,9.5-34.9,23
			c-1.4,3.3-2.1,7-2.1,10.6L1126.9,378.8z"/>
		<path class="st1" d="M1113.5,325.4c-5.4-13.7-18.1-23.6-34-23.6c-15.7,0-29.1,9.5-34.9,23c-1.4,3.3-2.1,7-2.1,10.6l-0.1,43.5h9.4
			l0-33.9h53.9v34.2h9.4v-44.2C1115.2,331.7,1114.7,328.4,1113.5,325.4z M1077.9,311c0.5,0,1.1,0,1.6,0c7.1,0,13.1,2.5,17.6,6.8
			c5.3,4.9,8.6,12,8.7,19.2H1052C1053,323.2,1063.9,311.8,1077.9,311z"/>
		<path class="st1" d="M901.2,301.4h-9.5l0,39.8c0,14.6-11.5,28-26.4,28.8c-0.5,0-1.1,0-1.6,0c-7.2,0-13.1-3.3-17.7-7.5
			c-5.4-5-8.8-12.1-8.8-19.3V301h-9.5v44.2c0,3.3,0.5,6.5,1.8,9.6c5.4,13.7,18.2,24.4,34.2,24.4c15.9,0,29.6-10.2,35.4-23.7
			c1.4-3.3,2.1-7,2.1-10.6L901.2,301.4z"/>
		<path class="st1" d="M911.6,331.9v-50.4h8.4v49c0,10,1.6,21.3,7.1,27.8c6.2,7.3,14.2,11.5,22.8,12.3v7
			c-14.2,2.4-29.9-10-34.5-21.8C913.2,350.1,911.6,338.4,911.6,331.9z"/>
		<path class="st1" d="M1021.3,356.4c-5.1,8-13.7,13.2-23.6,13.2c-15.6,0-28.3-13.2-28.3-29.5c0-16.3,12.7-29.5,28.3-29.5
			c11.6,0,21.6,7.3,26,17.8h9.7c-4.8-15.8-18.9-27.3-35.7-27.3c-20.7,0-37.4,17.5-37.4,39s16.8,39,37.4,39c15.1,0,28-9.3,34-22.7
			H1021.3z"/>
		<path class="st1" d="M1249.2,302.5c-21.2,0-39.1,17-39.1,38c0,21,17.9,38,39.1,38c21.2,0,39.5-17,39.5-38
			C1288.7,319.5,1270.4,302.5,1249.2,302.5z M1249.2,369.2c-16,0-29.7-12.9-29.7-28.7c0-15.9,13.7-28.7,29.7-28.7
			c16,0,30.2,12.9,30.2,28.7C1279.4,356.3,1265.2,369.2,1249.2,369.2z"/>
	</g>
	<path id="n" class="st0" d="M1152.6,262.4h17.8l0.1-76.3c0-28,21.4-52.2,49.4-53.7c1-0.1,2-0.1,3.1-0.1c13.5,0,24.9,4.9,33.5,12.9
		c10.2,9.5,16.5,23.1,16.5,37.1V263h17.8v-84.8c0-6.3-1-12.5-3.3-18.3c-10.2-26.3-34.5-45.2-64.5-45.2c-29.8,0-55.4,18.2-66.3,44
		c-2.7,6.4-4,13.3-4,20.3L1152.6,262.4z"/>
	<path id="e_1_" class="st1" d="M1117,198.9c-3.9,26.2-26.5,45.8-53.8,45.8c-20.6,0-38.4-11.4-47.7-28.3h-19.4
		c10.5,26.8,36.5,45.8,67,45.8c39.7,0,68.8-32.2,68.8-72s-29.1-72-68.8-72c-36.6,0-63.5,27.9-68,63.3H995v1.1
		c-0.3,2.7-0.5,5.4-0.5,8.1s0.2,5.4,0.5,8.1H1117L1117,198.9z M1116.8,181.1h-107.2c4.4-25.7,26.7-45.3,53.6-45.3
		C1090.1,135.8,1112.4,155.4,1116.8,181.1z"/>
	<path id="e_2_" class="st1" d="M848.6,198.9h121.9c0.3-2.7,0.5-5.4,0.5-8.1s-0.2-5.4-0.5-8.1v-1.1h-0.1
		c-4.5-35.4-31.4-63.3-68-63.3c-39.7,0-68.8,32.2-68.8,72s29.1,72,68.8,72c30.5,0,56.6-19,67-45.8H950
		c-9.2,16.9-27.1,28.3-47.7,28.3C875.1,244.7,852.5,225.1,848.6,198.9L848.6,198.9z M902.4,135.8c26.9,0,49.2,19.6,53.6,45.3H848.8
		C853.1,155.4,875.4,135.8,902.4,135.8z"/>
	<path id="t" class="st0" d="M743.2,186.7v76.3h18.4v-74.1c0-15.2,5.8-30,16.7-40.5c7.8-7.5,18.7-13.8,33.4-14.7v-15.8
		c-30.8-3.6-51.1,22.9-61.2,40.7C745.7,167.2,743.2,176.9,743.2,186.7z"/>
	<g id="lower_x5F_circle">
		<path id="square_x5F_circle_1_" class="st2" d="M309.3,415.4c-7.4-5-14.2-10.7-20.4-17l-56.1,68.8c-7.5-3.4-15.9-5.4-24.7-5.3
			c-32.2,0.3-58.1,26.7-57.8,59c0.3,32.2,26.7,58.1,59,57.8c32.2-0.3,58.1-26.7,57.8-59c-0.1-13.7-5-26.2-13-36L309.3,415.4z
			 M257.4,519.7c0.3,26.9-21.3,48.9-48.2,49.2c-26.9,0.3-48.9-21.3-49.2-48.2c-0.3-26.9,21.3-48.9,48.2-49.2
			C235.1,471.2,257.1,492.8,257.4,519.7z"/>
		<path id="square" class="st2" d="M188.8,495.3l34.8-3.3c5.1-0.5,9.7,3.3,10.2,8.4l3.3,34.8c0.5,5.1-3.3,9.7-8.4,10.2l-34.8,3.3
			c-5.1,0.5-9.7-3.3-10.2-8.4l-3.3-34.8C179.9,500.3,183.6,495.8,188.8,495.3z"/>
	</g>
	<g id="middle_x5F_circle">
		<path id="middle_x5F_circle_1_" class="st3" d="M252.6,309.1c0-7.6,0.7-15.1,2-22.4H143c-1.4-6.7-3.8-13.2-7.3-19.4
			c-18.5-32.5-59.8-43.8-92.3-25.3c-32.5,18.5-43.8,59.8-25.3,92.3c18.5,32.5,59.8,43.8,92.3,25.3c16.6-9.5,27.6-24.9,32-42l0.2-2.7
			h110.2C252.7,312.9,252.6,311,252.6,309.1z M104.8,349.8c-27.1,15.4-61.6,6-77-21.1c-15.4-27.1-6-61.6,21.1-77
			c27.1-15.4,61.6-6,77,21.1C141.3,299.9,131.9,334.4,104.8,349.8z"/>
		<g id="middle">
			<path class="st3" d="M79.4,259.4c3.8-0.3,7.5,0.1,11.1,1.5c5.5,2.1,9.4,5.7,12.2,10.8c2.1,3.8,2.5,7.9,2.4,12.1
				c-0.1,3.2-0.3,6.3-1.8,9.2c-2.4,4.7-5.8,8.6-9.6,12.1c-1,1-1.4,1.9-1,3.2c0.8,2.6,1.6,5.3,2.5,7.9c1,2.9,1.2,4.5-2,5.7
				c-0.3,0.1-0.6,0.4-0.9,0.7c-1.7,1.9-4,2.3-6.2,2.6c-2.7,0.3-4.3-0.8-4.7-4.8c-0.2-1.6-0.2-3.2-0.4-4.9c-0.2-1.5-1.2-2.1-2.5-2.1
				c-1.2,0-1.5,1-1.7,1.9c-0.5,2.4-1,4.7-1.3,7.1c-0.2,1.3-0.7,2-1.9,2.3c-0.5,0.1-1.3,0.3-1.4,0.9c-0.1,0.8,0.7,0.9,1.2,1.3
				c0.4,0.2,0.9,0.4,1.3,0.4c3.5,0.5,7,0.5,10.4-0.4c2-0.5,4-0.9,6-1.3c4.4-1,8.5-2.5,12.1-5.4c1.2-1,2.4-2.1,3.6-3.1
				c1.1-0.9,1.5-0.8,1.7,0.5c0.3,1.6,0.8,3.1,0,4.7c-0.6,1.2,0.3,1.3,1.1,1c1.5-0.6,2.9-0.2,4.3,0c0.4,0,0.8,0.1,0.9,0.5
				c0.1,0.4-0.2,0.5-0.5,0.8c-2.2,2.3-4.3,4.7-6.5,7c-2.4,2.6-5.3,4.2-8.4,5.7c-4,1.9-8.1,3.4-12.5,4.1c-8.3,1.4-16.5,1-24.5-2
				c-7.2-2.8-13-7.4-17.5-13.8c-2.2-3.1-4-6.4-5.1-10c-1.7-5.5-1.9-11.1-1.5-16.8c0.3-4.1,1.2-8.1,2.8-11.9c2-4.8,4.8-9.2,8.2-13.1
				c3.7-4.3,8-8,13.1-10.6C67.8,260.4,73.4,258.9,79.4,259.4z M50.5,304.5c-0.8-1.1-1.1-2.2-1.2-3.3c-0.2-3.9-0.4-7.8-0.5-11.8
				c0-0.3,0.1-0.7-0.3-0.8c-0.4-0.1-0.6,0.2-0.7,0.5c-0.5,1.9-1.3,3.7-1.3,5.6c0,2.6,0.1,5.3,0,7.9c-0.2,4.3,1,8.3,2.8,12
				c6.1,12.2,16.3,18,29.8,18.4c0.3,0,0.7,0.1,0.8-0.3c0.1-0.5-0.2-0.7-0.6-0.8c-0.8-0.2-1.7-0.3-2.5-0.4c-0.4-0.1-1,0.1-1-0.5
				c0-0.6,0.6-0.6,1-0.8c1-0.3,2.2,0,3.1-1.1c-4.1,0.2-7.9-0.6-11.5-2.3c-3.6-1.7-7.3-3.4-9.6-7c0.9,0.3,1.6,0.8,2.4,1.3
				c0.8,0.6,1.4,0.6,1.7-0.5c0.6-2.4,1.3-4.8,1.9-7.1c1.1-4.3,2.1-8.8,3.2-13.1c0.9-3.4,1.8-6.9,2.7-10.3c1.5-6,2.9-12,4.6-17.9
				c0.7-2.4,0-3.3-2.5-3.4c-3.9-0.1-7.3,1.6-10.2,3.9c-9.7,7.7-13.4,17.8-11.9,30C50.8,303.2,51,303.7,50.5,304.5z M81.2,268.7
				c-0.2,0-0.3,0.1-0.5,0.1c0.2,2.9-0.2,5.8-0.3,8.8c0,1.6,0.2,3.2,0.3,4.9c0.1,0.9,0.6,1.5,1.5,1.1c1.5-0.6,2,0.3,2.2,1.4
				c0.6,3.7,1.1,7.4,1.7,11.2c0.3,2.1,0.8,4.2,1.3,6.3c0.1,0.5,0.4,1.3,1.1,1.2c1-0.2,1.8-0.9,2.3-1.8c0.4-0.7-0.5-0.7-0.8-1
				c-0.2-0.2-0.4-0.5-0.6-0.7c-1.2-2.1-1.2-4.6-1.9-6.9c-0.7-2.2-1.2-4.4-1.7-6.6c-0.5-2-0.8-4-1.2-6c-0.1-0.4-0.1-1,0.5-1
				c0.5,0,0.5,0.5,0.6,0.8c1.3,3.5,2.1,7.1,3,10.7c0.5,2,0.9,4,1.8,5.8c0.4,0.8,0.9,1,1.4,0.3c1.3-1.7,2.8-3.2,3.5-5.3
				c0.9-2.5,0.9-5,0.9-7.6c0-6.7-5.4-12.9-11.3-14.8c-0.9-0.3-1.2,0-1.3,0.8c0,0.8,0,1.6-0.1,2.4c0,0.3,0,0.7-0.3,0.8
				c-0.5,0.1-0.6-0.4-0.7-0.7C82.1,271.4,81.7,270,81.2,268.7z M71.4,261.7c0.9,0.7,1.5,0.6,2.1,0.5c2.9-0.4,5.8-0.4,8.8-0.3
				c5.6,0.3,10.4,2.5,14.5,6.4c4.1,3.9,5.7,9,6.4,14.5c0.1,0.5-0.2,1.1,0.4,1.4c0.1-0.1,0.2-0.1,0.3-0.2c0.1-0.1,0.1-0.3,0.1-0.4
				c-0.2-3.9-0.2-7.8-2.1-11.4c-2.5-4.6-6.1-7.9-10.7-9.9c-4.4-1.9-9.2-2.4-14-1.8C75.2,260.6,73.4,261.2,71.4,261.7z M88,308.3
				c-0.1,2.2,0.9,4.2,1.1,6.3c0.1,0.7,0.7,1.2,1.4,1.4c1,0.2,1.7,0.7,2.4,1.4c0.2,0.2,0.5,0.5,0.8,0.3c0.2-0.2,0.1-0.5,0.1-0.7
				c-0.2-2.2-1.2-4.1-1.7-6.1c-0.3-1.1-0.6-2.3-1.6-3.2c-0.6-0.6-1.4-1.3-2.1-1.1C87.6,306.7,88.2,307.7,88,308.3z"/>
		</g>
	</g>
	<g id="up_x5F_circle">
		<path id="up_x5F_circle_1_" class="st1" d="M335.2,189.4L315.9,151c27.1-19.4,37.8-55.8,23.6-87.4c-16.2-36-58.5-52.1-94.5-35.9
			c-36,16.2-52.1,58.5-35.9,94.5c14.5,32.3,49.9,48.4,83.1,39.8l19.6,39.1C319.1,196.5,327,192.6,335.2,189.4z M219.9,117.3
			c-13.5-30-0.1-65.3,30-78.8c30-13.5,65.3-0.1,78.8,30c13.5,30,0.1,65.3-30,78.8C268.7,160.8,233.4,147.4,219.9,117.3z"/>
		<path id="triangle" class="st1" d="M304.5,63.5l-7.6,67.8c-0.5,4.7-6,7.1-9.8,4.3l-54.9-40.5c-3.8-2.8-3.2-8.7,1.2-10.6l62.5-27.3
			C300.3,55.3,305,58.8,304.5,63.5z"/>
	</g>
	<g>
		<path class="st0" d="M654.8,117.9c-39.5-0.5-71.6,31.7-70.8,71.3c0.1,3,0.3,5.9,0.8,8.8l-100.1,36.7
			c-23.2-32.4-61.2-53.6-104.1-53.6c-70.7,0-127.9,57.3-127.9,127.9c0,70.7,57.3,127.9,127.9,127.9c70.7,0,127.9-57.3,127.9-127.9
			c0-18.4-3.9-35.9-10.9-51.7l95.8-34.7c11.9,20.4,33.9,34.4,59,34.9c22.9,0.5,43.3-10.1,56.4-26.6l-2.2,43.9
			c-4.5,25.1-26.3,44.2-52.7,44.2c-29.6,0-53.7-24-53.7-53.7H584c0,38.6,31.3,69.9,69.9,69.9c33.3,0,61.8-23.2,68.8-54.4
			c0.7-3.3,1.1-6.6,1.1-10v-82.3C723.8,150.4,693.2,118.4,654.8,117.9z M380.6,413.6c-49.8,0-91.5-34.8-102-81.5
			c15.8-9.5,26.4-15.6,42.8-25.1c0,0,0,0,0.1,0c0.1-0.1,0.3-0.1,0.4-0.2c-0.1,0.1-0.2,0.1-0.4,0.2c8.6-5,20.5,1.1,28.7,4
			c7.6,2.6,19.9-8.4,25.7-12.4c11.9-8.3,29.2-20,44.6-12.9c8.4,3.9,43.2,36.5,62.4,44.7C473.1,377.9,431,413.6,380.6,413.6z
			 M484.5,319.9c-3.7-2.9-8.2-5.8-11-6.9c-14.9-6-27.5-18.2-39.2-28.5c-10.6-9.3-22.4-16.6-37.7-10.6c-17,6.7-31.9,29.7-52.1,22.1
			c-15.9-5.9-24.9,1.8-37.9,10.6c-7.2,4.9-8.8,4-16.1,8.7c-3.4,2.1-6.8,4.2-10.3,6.2c-1,0.5-2.3,1-3.2,1.5
			c-0.6-4.5-0.9-9.2-0.9-13.9c0-57.7,46.8-104.5,104.5-104.5c57.7,0,104.5,46.8,104.5,104.5C485.1,312.8,484.9,316.4,484.5,319.9z
			 M653.9,241.5c-29.6,0-53.7-24-53.7-53.7s24-53.7,53.7-53.7c29.6,0,53.7,24,53.7,53.7S683.5,241.5,653.9,241.5z"/>
		<path class="st0" d="M321.4,307C321.4,307,321.4,307,321.4,307c-0.1,0.1-0.1,0.1-0.2,0.1C321.3,307.1,321.4,307,321.4,307z"/>
	</g>
</g>
</svg>
