<?xml version="1.0" encoding="utf-8"?>
<!-- Generator: Adobe Illustrator 21.0.0, SVG Export Plug-In . SVG Version: 6.00 Build 0)  -->
<!DOCTYPE svg PUBLIC "-//W3C//DTD SVG 1.1//EN" "http://www.w3.org/Graphics/SVG/1.1/DTD/svg11.dtd">
<svg version="1.1" id="mapContSvg" xmlns="http://www.w3.org/2000/svg" xmlns:xlink="http://www.w3.org/1999/xlink" x="0px" y="0px"
	 viewBox="0 0 890 736" style="enable-background:new 0 0 890 736;" xml:space="preserve">
<style type="text/css">
	.st0{fill:none;}
	.st1{fill:none;stroke:#124667;stroke-miterlimit:10;}
	.st2{fill:#B4CFCF;}
	.st3{fill:#CDEBB0;}
	.st4{fill:#ACD09D;}
	.st5{fill:#EFEFD7;stroke:#A42929;stroke-width:0.3;}
	.st6{fill:#ADDEA3;}
	.st7{fill:url(#SVGID_10_);}
	.st8{fill:#EFEFD7;}
	.st9{fill:#F6EEB7;stroke:#E2C600;stroke-width:0.3;}
	.st10{fill:#CDCCC8;stroke:#111111;stroke-width:0.3;}
	.st11{fill:#AADFCA;stroke:#28C889;stroke-width:0.5;}
	.st12{fill:#F2D9D8;stroke:#D0B2B0;stroke-width:0.7;}
	.st13{fill:url(#SVGID_11_);}
	.st14{fill:url(#SVGID_12_);}
	.st15{fill:url(#SVGID_13_);}
	.st16{fill:url(#SVGID_14_);}
	.st17{fill:url(#SVGID_15_);}
	.st18{fill:url(#SVGID_16_);}
	.st19{fill:#D8CFC8;stroke:#B9A99C;stroke-width:0.75;}
	.st20{fill:#AF9C8D;stroke:#6F5B4D;stroke-width:0.75;}
	.st21{fill:none;stroke:#707D04;stroke-width:10;stroke-dasharray:4,2;}
	.st22{fill:none;stroke:#FAFBD6;stroke-width:8.6;stroke-linecap:round;stroke-linejoin:round;}
	.st23{fill:none;stroke:#7F7F7F;stroke-width:7;stroke-dasharray:4,2;}
	.st24{fill:none;stroke:#BABABA;stroke-width:6;stroke-dasharray:4,2;}
	.st25{fill:none;stroke:#8E8E8E;stroke-width:10;stroke-dasharray:4,2;}
	.st26{fill:none;stroke:#FFFFFF;stroke-width:5;stroke-linecap:round;stroke-linejoin:round;}
	.st27{fill:none;stroke:#FA7F71;stroke-width:3;stroke-dasharray:2,1;}
	.st28{fill:none;stroke:#F2F2F2;stroke-width:4.8;stroke-linecap:round;stroke-linejoin:round;}
	.st29{fill:none;stroke:#FFFFFF;stroke-width:8.8;stroke-linecap:round;stroke-linejoin:round;}
	.st30{fill:none;stroke:#444444;stroke-width:0.4;}
	.st31{fill:none;stroke:#7F7F7F;}
	.st32{fill:none;stroke:#999999;}
	.st33{fill:none;stroke:#BABABA;stroke-width:2;stroke-linecap:round;stroke-linejoin:round;}
	.st34{fill:none;stroke:#BABABA;stroke-width:3.5;stroke-linecap:round;stroke-linejoin:round;}
	.st35{fill:none;stroke:#8E8E8E;stroke-width:10;stroke-linecap:round;stroke-linejoin:round;}
	.st36{fill:none;stroke:#999999;stroke-width:6;stroke-linecap:round;stroke-linejoin:round;}
	.st37{fill:none;stroke:#BABABA;stroke-width:6;stroke-linecap:round;stroke-linejoin:round;}
	.st38{fill:none;stroke:#707D04;stroke-width:10;stroke-linecap:round;stroke-linejoin:round;}
	.st39{fill:#FFFFFF;}
	.st40{fill:#DDDDE7;}
	.st41{fill:none;stroke:#FFFFFF;stroke-width:3.3;stroke-linecap:round;stroke-linejoin:round;stroke-opacity:0.4;}
	.st42{fill:none;stroke:#FA7F71;stroke-width:1.3;stroke-linecap:round;stroke-linejoin:round;stroke-dasharray:1,4,2,3;}
	.st43{fill:none;stroke:#FFFFFF;stroke-width:5;stroke-linecap:round;stroke-linejoin:round;stroke-opacity:0.4;}
	.st44{fill:none;stroke:#FFFFFF;stroke-width:3.2;stroke-linecap:round;stroke-linejoin:round;stroke-opacity:0.4;}
	.st45{fill:none;stroke:#007F00;stroke-width:1.2;stroke-dasharray:4,2;}
	.st46{fill:none;stroke:#FFFFFF;stroke-width:2.75;stroke-linecap:round;stroke-linejoin:round;stroke-opacity:0.4;}
	.st47{fill:none;stroke:#996600;stroke-width:1.5;stroke-linecap:round;stroke-linejoin:round;stroke-opacity:0.8;}
	.st48{fill:none;stroke:#FFFFFF;stroke-width:0.8;stroke-linecap:round;stroke-linejoin:round;}
	.st49{fill:none;stroke:#EAEAEA;stroke-linecap:round;stroke-linejoin:round;stroke-dasharray:6,8;}
	.st50{fill:none;stroke:#FFFFFF;stroke-width:2.3;stroke-linecap:round;stroke-linejoin:round;}
	.st51{fill:none;stroke:#EAEAEA;stroke-width:2;stroke-linecap:round;stroke-linejoin:round;stroke-dasharray:6,8;}
	.st52{fill:none;stroke:#DDDDE7;stroke-width:4.8;stroke-linecap:round;stroke-linejoin:round;}
	.st53{fill:none;stroke:#FFFFFF;stroke-width:4.8;stroke-linecap:round;stroke-linejoin:round;}
	.st54{fill:none;stroke:#EAEAEA;stroke-width:2;stroke-linecap:round;stroke-linejoin:round;stroke-dasharray:6,6;}
	.st55{fill:none;stroke:#F6FABF;stroke-width:8.6;stroke-linecap:round;stroke-linejoin:round;}
	.st56{fill:#0092D9;}
	.st57{fill:#724A08;}
	.st58{fill:#AB38AB;}
	.st59{fill:#868686;}
	.st60{fill:none;stroke:#F6FABF;stroke-width:2;stroke-linejoin:round;stroke-miterlimit:10;}
	.st61{fill:url(#SVGID_17_);}
	.st62{fill:url(#SVGID_18_);}
	.st63{fill:#124667;}
</style>

<path id="carRoute" class="st1" d="M705.9,384.8c-1.7-0.3-3.5-0.6-5.2-0.8c-47.2-7.6-92.8-13.8-141.7-22.1c-23-4-43-11-64-20
	c-7-4-13-8-20-12L384,269l-21-21l-2.4-4L306,154l-30-94.1l-5-18l-9,7.8l-6,45.7v4.6l-1,10l4,5l5,9l14,25l12,29l7,21l3,14l1,13l-1,10
	l-3,14l-7,21l-2,8l-2,6l-6,25l-4,14l-3,28l-3,22v15l1,13l3,8l7,7l10,4l17,1l15-3l15-3h7l6,3l7,2l14,10l22,24l13,13l12,14l11,15
	l13,16l10,4l27,15l29,12l37,15l9.6,3l6.4,2l12,3l23,1l10-1l31-3l39-2l8-1l22-1l21-8l15-10l9-17l8-12l9-15l10-21l8-18l4-10l7-21l2-4
	v-21l-1-9.1c-18-1-51-3-69-5c-8.1-1.4-16.1-2.7-24.1-4"/>
<g id="mapBKGRD">
	<rect y="0" class="st2" width="890" height="736"/>
	<polygon class="st3" points="627,732 769,728 771.4,734 819.6,734 853,723 853.8,734 891,734 891,0 0,0 0,734 627,734 	"/>
	<path class="st4" d="M272,123v5l15,22l7,12l16,51l-5,42l-7,16l-16,49l73-19l19,41l33,26l-2,20l-26,2l-8-15l-11,2l5,40l44,42l56-13
		l-12-41l-19-27l-24-18l22-13l-5-48l-22-40l-12-14l-32-15l-20-13l-17-26l-19-36L272,123z"/>
	<path class="st5" d="M80.6,272l2.2,8l10.9,21l16.3,30l25,81h35l5,28h22l14-74l-24-74l-9-24h-43l-2-20l-24,2l-1-6l-8.1,7L80.6,272z"
		/>
	<path class="st6" d="M93.7,301l16.3,30l25,81h35l5,28h22l14-73l-25-74l-83,7L93.7,301z"/>
	<pattern  id="SVGID_10_" xlink:href="#SVGID_1_" patternTransform="matrix(1 0 0 1 465.7 17081.2793)">
	</pattern>
	<path class="st7" d="M93.7,301l16.3,30l25,81h35l5,28h22l14-73l-25-74l-83,7L93.7,301z"/>
	<path class="st4" d="M209,316l23,8l4,21l-19,12l2,12l9,8l35,52l-20,11l-28-7l15,61l15-1l50-9l2-25l19-6l6-22l5-5l-18,3h-24l-8-7
		l-9-14l-4-17v-25l11-40l-16-13l-12-3L209,316z"/>
	<path class="st4" d="M84,80.1l37,79.9l16,38l12-6l-24-32l-4-17l2-29l16,1l2-20.3l25,5.3l-2,24l18-1l15,16l33-39l-32-33.7l-30,28.4
		l-18-22.6l-15-15.2l-19,18.2L84,80.1z"/>
	<path class="st4" d="M423,531l1,5l22-6l9,23l25,18l7,15l36,20l-6,11l55,20l8,9h11l-4-11l-25-35l8-17l-45-17l-15,1l-15-25l-50-26
		L423,531z"/>
	<path class="st5" d="M29.8,93.1L45,170l11.3,9l64.7-19L84,80.1L29.8,93.1z"/>
	<path class="st3" d="M117,482l63,37l17-79h-22l-5-28h-35L117,482z"/>
	<path class="st8" d="M680,458l50,28l31,15l3-4l21-50l-50-15l-47-3L680,458z"/>
	<path class="st5" d="M242,507l17,15l66-17l-6-34l15-2l-7-31l26-14l-8-2l-23,9l-5,2l-23,12l-8,40l-41,8L242,507z"/>
	<path class="st5" d="M4,239l1.2,10l32.2,44L87,252l-37.3-41l-5.3-6L4,239z"/>
	<path class="st4" d="M398,239l5,3l81-75l-2-13l-28-30l-17,47L398,239z"/>
	<path class="st5" d="M386,615l8,13l26-14l-5-7l3-2h3v2l8,1l3,1l-5,8l4,6l1-1l10,5l-2,3l10,5l2-2l17,9l4-6l9,5l-1,2l3,2l1-2l19,9
		l6-12l-12-7l1-1l-4-3l1-2l-6-3l-1,2l-4-2l-1,1l-4-2l1-2l-1-1l-18-10v-1l-6-3l-1,1l-19-10l-1,2l-7-3l-1-2l-7,1v1l-8,3l-1-2l-20,12
		l2,2L386,615z"/>
	<path class="st4" d="M404,624l3,6l11,12l19,29l-5,25l15-11l12-9l30,3l3-17l-26-9l-52-34L404,624z"/>
	<path class="st9" d="M109,539l6,20l33,12l8-18l14-6l-33-11l13-26l-30-14L109,539z"/>
	<path class="st3" d="M201,678l3,12l13,16l10,2l32-2l-1-12l6-3v-7l28-1l-3-17h-30v21l-15,4l-12,1l-11-13L201,678z"/>
	<path class="st9" d="M196,582l77,43l8-15l-77-42L196,582z"/>
	<path class="st5" d="M122,134l11,1l2-11l3,1l-3,19l-8-1l-2,14l16,2l1-8l4,1l-3,19l7,2l7-47h-5l4-25l-10-1.5l-2,19.5l-19-3L122,134z
		"/>
	<path class="st10" d="M219,678l7,1v6h9l1,5l23-3l-1-10v-4l-1-3l-4-1l-2-1l-1-5l-30-3L219,678z"/>
	<path class="st10" d="M136,268h28v-14h5v-8h-7v-8h-6v4h-15v15h-5V268z"/>
	<path class="st5" d="M0.6,634l9.2,2l4.7,1l-2.8,15l4.9,1l-0.2,2l5.2,1l0.4-3l3.7,1l2.9-16l-4.5-1l1.9-10h3.3l0.7-4l-4.9-1l0.3-1
		l-4.3-1l-0.2,1l-4.8-1l-2.6,15l-3.3-1l3.2-18l-9.2-2L0.6,634z"/>
	<path class="st10" d="M143,596l4,8l14,12l7-31l-21-6l-2,5l7,3l-2,6l-5-2L143,596z"/>
	<path class="st11" d="M733,476l14,7l13-27l-14-7L733,476z"/>
	<path class="st12" d="M519,672l19,4l4-15h4l1-5l-17-9l-3,5l-5,9L519,672z"/>
	<path class="st11" d="M713,463l15,7l11-22l-16-7L713,463z"/>
	<path class="st10" d="M602,515l5,2l2,3l2,3l-2,2l5,1l5,1l3-7l-3-1v-2l-1-5l1-3l8,3l3-9l-15-5l-3,6l-5-2L602,515z"/>
	<path class="st11" d="M699,454l13,5l8-18l-12-6L699,454z"/>
	<path class="st10" d="M47.2,592l17.5,10l5.8-9l-13.9-8l-5-2L47.2,592z"/>
	<path class="st10" d="M224,540l18,9l4-9l-18-9L224,540z"/>
	<path class="st11" d="M151,279h21v-10h-21V279z"/>
	<path class="st10" d="M37.7,691l19.7,2l1-9l-19.7-2L37.7,691z"/>
	<path class="st5" d="M243,139l2,3l17,4l-3-15l-12,4L243,139z"/>
	<path class="st10" d="M515,727l4,1l2,5l5,1l4-17l-9-2v7h-5L515,727z"/>
	<path class="st10" d="M629,721l1,9l12-2l-1-9h-3l-1-6h-7l1,8H629z"/>
	<path class="st10" d="M204,654l7,1l2-12l-7-1L204,654z"/>
	<path class="st3" d="M10.3,729l1,4l3.1-1l-1.3-7L10.3,729z"/>
	<path class="st3" d="M4.9,725l0.6,3h2.3l2-3H4.9z"/>
	<path class="st2" d="M246,337l4,1l1-5l-4-1L246,337z"/>
	<pattern  id="SVGID_11_" xlink:href="#SVGID_2_" patternTransform="matrix(1 0 0 1 868 18019.2793)">
	</pattern>
	<path class="st13" d="M272,123v5l15,22l7,12l16,51l-5,42l-7,16l-16,49l73-19l19,41l33,26l-2,20l-26,2l-8-15l-11,2l5,40l44,42l56-13
		l-12-41l-19-27l-24-18l22-13l-5-48l-22-40l-12-14l-32-15l-20-13l-17-26l-19-36L272,123z"/>
	<pattern  id="SVGID_12_" xlink:href="#SVGID_3_" patternTransform="matrix(1 0 0 1 805 17832.2793)">
	</pattern>
	<path class="st14" d="M209,316l23,8l4,21l-19,12l2,12l9,8l35,52l-20,11l-28-7l15,61l15-1l50-9l2-25l19-6l6-22l5-5l-18,3h-24l-8-7
		l-9-14l-4-17v-25l11-40l-16-13l-12-3L209,316z"/>
	<pattern  id="SVGID_13_" xlink:href="#SVGID_4_" patternTransform="matrix(1 0 0 1 680 18085.3789)">
	</pattern>
	<path class="st15" d="M84,80.1l37,79.9l16,38l12-6l-24-32l-4-17l2-29l16,1l2-20.3l25,5.3l-2,24l18-1l15,16l33-39l-32-33.7l-30,28.4
		l-18-22.6l-15-15.2l-19,18.2L84,80.1z"/>
	<pattern  id="SVGID_14_" xlink:href="#SVGID_5_" patternTransform="matrix(1 0 0 1 1019 17626.2793)">
	</pattern>
	<path class="st16" d="M423,531l1,5l22-6l9,23l25,18l7,15l36,20l-6,11l55,20l8,9h11l-4-11l-25-35l8-17l-45-17l-15,1l-15-25l-50-26
		L423,531z"/>
	<pattern  id="SVGID_15_" xlink:href="#SVGID_6_" patternTransform="matrix(1 0 0 1 994 18018.2793)">
	</pattern>
	<path class="st17" d="M398,239l5,3l81-75l-2-13l-28-30l-17,47L398,239z"/>
	<pattern  id="SVGID_16_" xlink:href="#SVGID_7_" patternTransform="matrix(1 0 0 1 1000 17523.2793)">
	</pattern>
	<path class="st18" d="M404,624l3,6l11,12l19,29l-5,25l15-11l12-9l30,3l3-17l-26-9l-52-34L404,624z"/>
	<path class="st19" d="M8.9,243l6.7,8l7.5,8l-2.5,3L41,285l40.7-36l-11.1-12l-2.1,1l-17.1-17l2.5-4l-7.5-8l-21.9,18l3.3,3L8.9,243z"
		/>
	<path class="st19" d="M386,615l8,13l26-14l-5-7l3-2h3v2l8,1l3,1l-5,8l4,6l1-1l10,5l-2,3l10,5l2-2l17,9l4-6l9,5l-1,2l3,2l1-2l19,9
		l6-12l-12-7l1-1l-4-3l1-2l-6-3l-1,2l-4-2l-1,1l-4-2l1-2l-1-1l-18-10v-1l-6-3l-1,1l-19-10l-1,2l-7-3l-1-2l-7,1v1l-8,3l-1-2l-20,12
		l2,2L386,615z"/>
	<path class="st19" d="M390,95l29,36l9-7l-4,14l-8-3l-7,22l18,7l8-22l-8-3l4-12l5-2l1-5l-2-2l8-7l-2-11l-25-27.6L390,95z"/>
	<path class="st19" d="M259,650l23,2l7-12l3,3l4,3h5l5-2l4,2l-2,4l20-1l-5-9l-5-9l-4,7l-3-2l-2-7l-5-5l-5-2l5-8l6-10l-17-10l-5,9
		l-5,9l-3-1l-7,14l-3,6L259,650z"/>
	<path class="st19" d="M787,702.8l1,24.2h4l1,8.1h9v-2.7l11-0.9v-2.7l13-0.9v-2.7l12-1.8v-3.6l9-1.8l-2-12.5l-1-4.5L787,702.8z"/>
	<path class="st19" d="M42,117l4.9,15l4.5-1l1.2,37h8l-1-37l6.6-2l10.5,36l7.9-2l-11.4-36l7.1-3l20.7,32l6-5l-19-32l-1.4-3l3.5-1
		l-3.5-12l-9.3,2l1.7,3l-28.5,9l-0.1-3L42,117z"/>
	<path class="st19" d="M50.7,506l35,18l-3.1,6l22.4,8l3-9l-14.6-5l-3.6-2l4.7-8l-0.8-29l-9.9-5l-1.6,3l-13.6-7L50.7,506z"/>
	<path class="st19" d="M105,702l4,17l8,17l19-8l10-22l6,4l-3,4l9,6l7-9l-19-20L105,702z"/>
	<path class="st19" d="M196,582l77,43l8-15l-77-42L196,582z"/>
	<path class="st19" d="M677,484l1,14h7v3h-5l1,15h3v4h-6v13l6-1l1,3h-7l1,19h13v-3l12-1v-12h-8l-2-23l12-1l-1-10l-8,1l-1-22L677,484
		z"/>
	<path class="st19" d="M122,134l11,1l2-11l3,1l-3,19l-8-1l-2,14l16,2l1-8l4,1l-3,19l7,2l7-47h-5l4-25l-10-1.5l-2,19.5l-19-3L122,134
		z"/>
	<path class="st19" d="M637,710v3l1,6h3l1,9l6-1v-8l3-1l1,10l12-1l-1-11l15,1v10h6v-9l7-1v-2h10v8h2l1,6h10v-4l-3,1l-1-4h-3v-7h8v4
		h11l-1-5h2l-1-9L637,710z"/>
	<path class="st19" d="M71.2,608l10.8,4l6.8-15l5.7-7l7.5-9l4,8h8l1,12l1,14l-10-1l-3,4l23,9l-1-14l-2-19l-3-16l-2-4l-11-3h-7.9
		l-6,5l-11.7,14l-8.1,15L71.2,608z"/>
	<path class="st19" d="M761,596v9h28v-4h32v2h30v-10l-26,1v-12l-6,1h-2v9h-25v-9l-9,1v11L761,596z"/>
	<path class="st19" d="M225,573l51,28l2-4l10,6l5-9l-61-33L225,573z"/>
	<path class="st19" d="M219,678l7,1v6h9l1,5l23-3l-1-10v-4l-1-3l-4-1l-2-1l-1-5l-30-3L219,678z"/>
	<path class="st19" d="M526,732.5l28.8,2.5h7.2l5-16.6l-35-8.4l-2,6.6L526,732.5z"/>
	<path class="st19" d="M706,636l3,27l31-4l-3-27L706,636z"/>
	<path class="st19" d="M86.6,268l0.3,9l6.1-1l0.9,5H105v10l5,1l33-3l-2-17h-7l1,7l-4,1l-1-3h-11v4h-3l-1-7h-6v3h-3l-1-3l-1-11
		l-8.9-1L86.6,268z"/>
	<path class="st19" d="M674,696l27-1l54-4l-1-8h-9v-4h-5l1,3l-9,1v-3l-4,1l-1-3h-4v7h-3l-7,1v-6l-13,1v5l-26,2V696z"/>
	<path class="st19" d="M621,550l11,5l10-24l5,2l-2,4l10,3l5-13l-9-4l-2,4l-6-3l6-14l-10-5l-6,15l-2-1l-3,5l3,1L621,550z"/>
	<path class="st19" d="M802,658l1,9l37-1v2l37-2l-1-10l-35,3v-4L802,658z"/>
	<path class="st19" d="M136,268h28v-14h5v-8h-7v-8h-6v4h-15v15h-5V268z"/>
	<path class="st19" d="M278,357l2,8l73-20l-2-9L278,357z"/>
	<path class="st19" d="M489,681l1,20h30l1-7h-5v-9h5l-1-6l-4-1l-1-7l2-8l-4-1l-3,6l-8-1v13l5,1l1,13l-7,1l-1-14H489z"/>
	<path class="st19" d="M752,566v8l26-1v-4l34-1v3h8v-8h-5v-11h-6h-2v9l-25,1l-1-9h-8l1,12L752,566z"/>
	<path class="st19" d="M567,548l34,7l-23-47L567,548z"/>
	<path class="st19" d="M148,672l4,2l-2,6l1,6l4,6l3,5l5-4l-3-9l10-2l2,2l-3,2l3,5l7-1l-3-3l3-1l-7-22l-3-3l-13-3L148,672z"/>
	<path class="st19" d="M255,501l2,11l23-5l1,4l10-3l-1-3l24-5l-2-11L255,501z"/>
	<path class="st19" d="M285,326l3,9l36-10l-1-4l35-9l-3-9l-37,10l1,4L285,326z"/>
	<path class="st19" d="M279,375l3,11l17-5l1,2l16-5l1,3l19-5l-1-5l14-4l-2-9l-16,5l1,4l-18,5l-1-3l-15,5l-2-4L279,375z"/>
	<path class="st19" d="M125,586l3,37l2,20l8,1l2,4l4-2l-1-10h-4l-1-11h2l-1-21l-5,1v-4v-2l1-1l2,2l3-1l-10-14L125,586z"/>
	<path class="st19" d="M206,642l7,1l-2,12l18,4l2-8l3-13h4l1-3l-6-1v-2h-2v-1l-1-3l-1-1l-3-1l-2,1l-2,2h-3v2l-11-2l-1,3L206,642z"/>
	<path class="st19" d="M429,702h32l24-1v-6h-20l-1-17h-6v8l-6-2l-5,1v5l-3,1l-1,5h-7l-1-3l-3,3h-3V702z"/>
	<path class="st19" d="M0.6,634l9.2,2l4.7,1l-2.8,15l4.9,1l-0.2,2l5.2,1l0.4-3l3.7,1l2.9-16l-4.5-1l1.9-10h3.3l0.7-4l-4.9-1l0.3-1
		l-4.3-1l-0.2,1l-4.8-1l-2.6,15l-3.3-1l3.2-18l-9.2-2L0.6,634z"/>
	<path class="st19" d="M35.7,580l8.4,4l24.8-50l-9.7-5l-4,8l-7.8,15l-4.5-3l-3.4,7l6.6,3L35.7,580z"/>
	<path class="st19" d="M300,717l4,8l10-6v-2l25-12l-4-7l-4-7l-12,5l-16,3l3,10l6-1v3L300,717z"/>
	<path class="st19" d="M179,679l4,11l3,7l7,8l5,3l3,3l-2,5l7,2l6-10l-11-14l-5-16L179,679z"/>
	<path class="st19" d="M464,407l9,15l5,8l14,13l11,8l12,7l3-10l-11-4l-11-8l-12-13l-9-13l-3-6L464,407z"/>
	<path class="st19" d="M38.7,682l19.7,2l11.9,1l6-1l2.7-19l-17.4-1l-1.2,8l-9-1l0.2,3l-10.4-1L38.7,682z"/>
	<path class="st19" d="M12,460l1.4,7h8.7l1.5,2l7.3-1l2.6-3l-1.1-6l-2.4-3h5l-1.5-5l-0.9-14h-2.8l0.3,2l-1.8-3l-1.2-7l-8.5,1l-1.4,3
		l1.4,8l1.4,1l0.7,7l3.2,2l-0.1,6h-9.9L12,460z"/>
	<path class="st19" d="M143,596l4,8l14,12l7-31l-21-6l-2,5l7,3l-2,6l-5-2L143,596z"/>
	<path class="st19" d="M191,226l2,10l53-11l-2-10L191,226z"/>
	<path class="st19" d="M32.7,342l6.3,10l37.3-26l-5.8-9l-19.1,13L32.7,342z"/>
	<path class="st19" d="M294,656v19l8-1v6l17-2l-1-9l-1-8h-3v-3l-4,1l-1-3l-8,1L294,656z"/>
	<path class="st19" d="M492,420l2,8l56-13l-2-8L492,420z"/>
	<path class="st19" d="M169,614h6v-6l6,2l3-7l-4-2l7-31l-9-2l-9,36V614z"/>
	<path class="st19" d="M23.4,557l8.4,4l15.7-28l7.7,4l4-8l-15.5-8L23.4,557z"/>
	<path class="st19" d="M158,697l20,17l15,9l10,4l3-9l-7-2l-1-1l-25-17l-1,2l-6-4l-3-3L158,697z"/>
	<path class="st19" d="M98.3,686l7.7,10l18-6l-4-6l-7-13l-3-4l-1-7h-8l-1,7l7,12l2,3l-4,3l-4-3L98.3,686z"/>
	<path class="st19" d="M296,403l2,8l32-8l1,4l18-5l-3-9l-16,4l-1-3L296,403z"/>
	<path class="st19" d="M437,573l30,16l6-11l-30-17L437,573z"/>
	<path class="st19" d="M241,168l3,11l35-9l-3-10h-2v-3l-10,3l1,2L241,168z"/>
	<path class="st19" d="M844,701l1,5l13-2l1,9l29-2l-1-13L844,701z"/>
	<path class="st19" d="M772,717.3l4,10.3l1,6.4h16v-2.4l-1-7.2h-4l-1-21.5h-9l2,11.1l6,10.3h-6l-4-8.7L772,717.3z"/>
	<path class="st19" d="M713,463l15,7l11-22l-16-7L713,463z"/>
	<path class="st19" d="M88.3,349l2.8,9l9.9-2l5-2l1,6l8-3l-3-13l-3,1l-4-14l-11.3,4l3.4,11L88.3,349z"/>
	<path class="st19" d="M278,574l48,27l4-7l-48-27L278,574z"/>
	<path class="st19" d="M602,515l5,2l2,3l2,3l-2,2l5,1l5,1l3-7l-3-1v-2l-1-5l1-3l8,3l3-9l-15-5l-3,6l-5-2L602,515z"/>
	<path class="st19" d="M456,386l1,9l44-10l-2-8L456,386z"/>
	<path class="st19" d="M539,485l3,14l29-6l-3-14L539,485z"/>
	<path class="st19" d="M692,576v9l28-1v3h8v-8h-5v-13l-9,1v8L692,576z"/>
	<path class="st19" d="M30.6,628l12.6,4l-0.5,1l-7.3-2l-3.8,11l16.9,6l6.6-20l-4.2-1l-0.9,2l-3.8-1l1.1-3l-2.4-1l-0.7,2h-1.3l0.8-3
		l-10.5-3L30.6,628z"/>
	<path class="st19" d="M847,574l30,24l6-8l-29-24L847,574z"/>
	<path class="st19" d="M98.9,657l13.1,1l14-3l-1-13l-8-1l-5-1l-6-3L98.9,657z"/>
	<path class="st19" d="M10.3,583l30.5,9l3.3-8l-8.4-4l-10.1-3l2.3-8l-9.9-3L10.3,583z"/>
	<path class="st19" d="M514,435l2,9l43-9l-2-9L514,435z"/>
	<path class="st19" d="M891.7,584.4c0.2-4.3,0.4-8.5,0.7-12.8c-1.7-7.4-2.3-15.1-1.6-22.7H884l2,36L891.7,584.4z"/>
	<path class="st19" d="M571,604l9,7l-3,5l12,11l5-9l-8-9l2-2l1,1l3-3l-1-1l3-4l-2-2l2-1l-7-4l-7,7l-3-2l-3,3L571,604z"/>
	<path class="st19" d="M318,669l35,6l2-11l-35-6L318,669z"/>
	<path class="st19" d="M553,648l14,12h10l-3-18l-16-7L553,648z"/>
	<path class="st19" d="M377,517l4,4l4-4l3,3l4-4l-1-1l4-3l2,2l3-3l-2-2l10-9l1,2l3-3l-1-2l2-2l-4-5l-5,4l-3-3l-4,4l1,1l-3,3l-1-2
		l-5,4l3,4L377,517z"/>
	<path class="st19" d="M255,560l19,10l7-14l-7-4l3-5l-7-4l-3,5l-4-3L255,560z"/>
	<path class="st19" d="M469,715l41,1v6h6h5v-7v-5l-52-1V715z"/>
	<path class="st19" d="M203,727l21,5v-6h5l1-11h-8l-7-2l1-3l-4-2l-6,10L203,727z"/>
	<path class="st19" d="M520,453l2,9l41-9l-2-9L520,453z"/>
	<path class="st19" d="M810,438l15,10l1,19h9l-1-20h-6l4-5l-17-12L810,438z"/>
	<path class="st19" d="M76.9,309l2.5,11l4.2-1l3.3,8l-3,2l2.5,4l15.6-6l-10.2-21L76.9,309z"/>
	<path class="st19" d="M607,607l3,4l-2,2v1v3l1,2l2,2l-2,4v1h1l3,1h3l2-1l-1-4h3l-1,3v1h2h2h3l3-1l-2-4v-3h2v-1v-2v-2l-1-2l-2,1l1-6
		l-3-1h-2l-2,1l-1,3h-3v-3h-3h-2h-2L607,607z"/>
	<path class="st19" d="M780,502l8,6l21-30l-9-6L780,502z"/>
	<path class="st19" d="M304,614l28,15l5-11l-27-14L304,614z"/>
	<path class="st19" d="M698,418l38,6l1-10l-38-5L698,418z"/>
	<path class="st19" d="M520,701l42-1v-6l-3,1v-3l-11-1v-3h-9v7h-10l1-4h-8l-1,3L520,701z"/>
	<path class="st19" d="M223,304l2,8l41-11l-2-8L223,304z"/>
	<path class="st19" d="M161,168l5,4l13-14l2-6l-2-1l3-8l-14-5l-2,7l6,6l-5,4l-4-1L161,168z"/>
	<path class="st19" d="M502,399l2,8l42-10l-2-8L502,399z"/>
	<path class="st19" d="M290,294l3,9l36-11l-3-9L290,294z"/>
	<path class="st19" d="M81.3,647l0.3,11l15.2-1l6.2-19l-9.1-4l-1.1,5l3.4,1l-2.6,9l-4.7-1l0.1-5l-1-1l1.3-10l-5.4-1l-2.5,10
		L81.3,647z"/>
	<path class="st19" d="M655,410l38,6l1-9l-38-6L655,410z"/>
	<path class="st19" d="M514,627l38,20l5-13l-10-5l-2,7l-7-3l-8-4l-11-5l2-5h-4L514,627z"/>
	<path class="st19" d="M86.6,612l16.4,6l4-8l-4-2l6-13l-12-5l-3.2,8l4.7,2l-0.9,2l-6.3-2L86.6,612z"/>
	<path class="st19" d="M107,566l9,5l5,3l8,5l8,9l8-9l-11-10l-2,1l-9-6l-2,3l-10-5h-4V566z"/>
	<path class="st19" d="M107,384l2,19l18-2l-2-19L107,384z"/>
	<path class="st19" d="M273,182l10,35l9-3l-10-35L273,182z"/>
	<path class="st19" d="M130,643l1,11l10,12l1,2h2l2-2l10-20l-7-3l-2,1l2,2l-3,2l-4,5l-2-5l-2-4L130,643z"/>
	<path class="st19" d="M214,12l9,6.4l-1,1.2l15,11.7l-1,1l5,3.6l6-6.6l-5-3.9l1-1.5l-15-12.2l1-1.2L220,4L214,12z"/>
	<path class="st19" d="M541,343l7,1l3-14h4v-2l12,2l2-8l-14-3l-1,3l-11-3l-2,7l3,1L541,343z"/>
	<path class="st19" d="M505,510l4,1l-1,1l6,2l2-3l10,4l-1,2l5,2l1-2l5,2l-1,2l4,2l2-4l5,2l1-5l-3-1l1-1l-2-1l-2,3l-12-5l1-4l-5-2v2
		l-4-2l1-2l-6-2v3l-8-3L505,510z"/>
	<path class="st19" d="M78.8,398h13.1l-0.4,5h8.5v-4l2,1l-1-17H91l-0.3,4l-11.1-1L78.8,398z"/>
	<path class="st19" d="M328,677l3,14l4,7l5-3l7,7l2-15h-2l1-7L328,677z"/>
	<path class="st19" d="M836,552v9l38-2v-9L836,552z"/>
	<path class="st19" d="M51,30.3l13.1,11.4l7.1-8l-4.5-3.9l8.4-9.6l-8.6-7.5L51,30.3z"/>
	<path class="st19" d="M186,169l1,12l15-1v-2l9-1l-1-14l-14,1v5H186z"/>
	<path class="st19" d="M347,714l3,8l3,6l16-11l7-2v-8h-12L347,714z"/>
	<path class="st19" d="M462,463l14,33l8-3l-13-33L462,463z"/>
	<path class="st19" d="M25.3,35.6l3.8,24.1l15.8-2.5l-1.8-10.7l-4.4,0.7l-2.2-13.4L25.3,35.6z"/>
	<path class="st19" d="M86.8,18.8l24.2,1V8.4L98.9,7.9l0.2-4.6L87.5,2.9L86.8,18.8z"/>
	<path class="st19" d="M68.5,567l15.3,14l1.3,1l15.9-17l-8.7-3l-6.9,7l-9.4-9L68.5,567z"/>
	<path class="st19" d="M652,583l1,8h9l-1-4l18-1l5-1l-1-8l-19,1v-6l-8,1l1,10H652z"/>
	<path class="st19" d="M777,278l12,12l13-13l-12-12L777,278z"/>
	<path class="st19" d="M33.5,451l1.6,5l0.4,3l1.6,8l18.9-2l-0.8-16L33.5,451z"/>
	<path class="st19" d="M47.8,58.2l2.4,11l20.5-4.6l-2.4-10.9l-4.7,1.1l-1.7-7.7l-10,2.3l1.6,7.5L47.8,58.2z"/>
	<path class="st19" d="M704,205l13,10l15-21l-9-7l-3,3l2,2l-7,10l-6-4L704,205z"/>
	<path class="st19" d="M32.4,418h6.3l-2,10h9.1l0.9-6l11.1,1l0.7-10h-11l-1.5-3H32.7L32.4,418z"/>
	<path class="st19" d="M538,676l11,2l-1,10l11,1v3v3l3-1l-2-20l-10-1v-6l-9-2L538,676z"/>
	<path class="st19" d="M267,230l10,32l8-3l-10-32L267,230z"/>
	<path class="st19" d="M2,45.3l3.7,22.2l15.9-2.6L19.7,54l-4.8,0.8L13,43.5L2,45.3z"/>
	<path class="st19" d="M201,482l11,3l-1,5l10,2l3-13l-8-2l1-5l-13-3L201,482z"/>
	<path class="st19" d="M52.9,581l18.8,11l3.6-7l-3.2-2l2.3-4l-13.8-13L52.9,581z"/>
	<path class="st19" d="M56.2,704l1.2,3l22.6-5l-3.7-18l-6,1l-0.7,9l-12.7,2L56.2,704z"/>
	<path class="st19" d="M30.6,353l3.2,25l10.8-1l-2.3-21l4.6-3l-2.8-4l-3.5,3L30.6,353z"/>
	<path class="st19" d="M753,705l1,20l16-1l-3-20L753,705z"/>
	<path class="st19" d="M757,534l7,4h16l-1-7l3,1l1,2l4-2l-6-5l-3-2l-4-1l-8,1l-6,4L757,534z"/>
	<path class="st19" d="M450,362l2,8l35-8l-2-8L450,362z"/>
	<path class="st19" d="M567,330l25,4l2-10l-25-5v3L567,330z"/>
	<path class="st19" d="M375,583l1,3l10-5l6,8l18-10l-6-10l-19,9L375,583z"/>
	<path class="st19" d="M14,705l0.2,7h12.1l-0.1-4h3l-0.2-7h1.9l-0.2-5h2.4l-0.3-7H16.6l0.2,7H22l0.3,9H14z"/>
	<path class="st19" d="M69.6,373l26,2l1.4-11l-19.8-2l-2,3l-4.9,2L69.6,373z"/>
	<path class="st19" d="M41.1,387l1,11l25.1-3l-1-11L41.1,387z"/>
	<path class="st19" d="M92.4,66.4l4.2,9.6L121,65.4l-4-9.5L92.4,66.4z"/>
	<path class="st19" d="M210,328l8,21l7,2l5-5l-8-20h-6L210,328z"/>
	<path class="st19" d="M414,502l8,9l-5,4l7,7l5-5l-2-2l5-5l-8-9l4-4l-7-8l-6,6l4,3L414,502z"/>
	<path class="st19" d="M69.3,445l26.3,1l0.5-10l-26.3-1L69.3,445z"/>
	<path class="st19" d="M625,200l1,2l-1,1l6,9l2-1l1,1l3-3l-1-1l11-8l1,2l3-3l-7-10l-2,1l-1-2l-1,1l1,3l-12,8l-2-2L625,200z"/>
	<path class="st19" d="M373,537l8,9l-4,3l6,7l6-5l-3-4l4-4l-7-9l3-3l-6-7l-6,5l3,4L373,537z"/>
	<path class="st19" d="M115,671l8,12l15-10l-9-12L115,671z"/>
	<path class="st19" d="M236,157l1,7l23-8l1-4l-25-6V157z"/>
	<path class="st19" d="M377,375l1,10l24-3l-2-11L377,375z"/>
	<path class="st19" d="M573,694v6l25,1h14l14-1v-6l-15,3h-20L573,694z"/>
	<path class="st19" d="M114,33l16,15.4l8-8.4l-16-15.3L114,33z"/>
	<path class="st19" d="M544,534l7,2l-2,4h-2l-3,8l7,2l-1,4l7,2l3-8l-7-3l1-2h2l3-9l-7-2l1-4l-6-2L544,534z"/>
	<path class="st19" d="M162,657l7,1l8-13l1-2l6-8l-8-4l-2-2l-4,6l2,1l-2,2l2,2l-5,7h-2L162,657z"/>
	<path class="st19" d="M172,659l21,3l1-10l-9-6l-3-2l-2,1l-3,3L172,659z"/>
	<path class="st19" d="M495,613l14,8l7-13l-14-8L495,613z"/>
	<path class="st19" d="M585,440l1,17l19-1l-1-9h-8l-1-8L585,440z"/>
	<path class="st19" d="M493,514l7,2l-2,5l-2-1l-3,8l7,3l-2,3l8,3l3-9l-7-2l1-3h1l4-8l-7-3l1-3l-6-3L493,514z"/>
	<path class="st19" d="M60,635l7.7,3l9.6,4l5.3-12l-7.2-3l-10.1-5L60,635z"/>
	<path class="st19" d="M612,439l2,17l18-1l-1-9h-8l-1-8L612,439z"/>
	<path class="st19" d="M640,446l1,17l18-2v-9l-9,1v-8L640,446z"/>
	<path class="st19" d="M79.2,676l13.6,2l3.4-17l-15-1L79.2,676z"/>
	<path class="st19" d="M94.5,499l16.5,9l4-9l-3-1l2-5l-13-6L94.5,499z"/>
	<path class="st19" d="M733,503l1,9h9v8h9l-1-18L733,503z"/>
	<path class="st19" d="M28.4,316l6.2,11l17.1-11l-6.2-10L28.4,316z"/>
	<path class="st19" d="M665,462l1,17l18-2l-1-9l-8,1l-1-8L665,462z"/>
	<path class="st19" d="M159,580l10,3l7-24l-9-3L159,580z"/>
	<path class="st19" d="M419,246l4,6l-2,2l4,6l-2,2l2,4l9-6l-3-4l6-4l-9-13l-1,2l3,5h-1l1,1l-1,1l-1-2l-3-4L419,246z"/>
	<path class="st19" d="M191,512l8,4l7-26l-9-2L191,512z"/>
	<path class="st19" d="M13.9,344l2.2,20l11.3-1l-1.8-20L13.9,344z"/>
	<path class="st19" d="M47.2,592l17.5,10l5.8-9l-13.9-8l-5-2L47.2,592z"/>
	<path class="st19" d="M706,485l2,17l18-2l-1-8h-8l-1-8L706,485z"/>
	<path class="st19" d="M400,207l9,3l5-15l2,1l3-8l-10-4L400,207z"/>
	<path class="st19" d="M794,682l1,6h15v2l17-1l-1-8L794,682z"/>
	<path class="st19" d="M84.9,628l8.3,3l-0.6,1l5,2l6.4,3l4-11l-19.8-7L84.9,628z"/>
	<path class="st19" d="M624,326l1,13l16-2l-1-11h-3v-2v-4l-7,1v5H624z"/>
	<path class="st19" d="M353,207l4,2l5,1l1-4h6l4-13l-9-4l-2,5l4,1l-1,5l-4-1l1-6l-4-1L353,207z"/>
	<path class="st19" d="M722,532v9l18-1l-1-17l-10,1l1,8H722z"/>
	<path class="st19" d="M37,610l15.4,7l-2,4l7.1,4l5.1-11l-23.7-12L37,610z"/>
	<path class="st19" d="M220,60.9l10,7.4l11-14.6l-10-7.4L220,60.9z"/>
	<path class="st19" d="M15.3,602l5.2,2l-0.3,1H17l0.5,2l17,4h2.2l0.3-1l1.9-8l-21.7-7L15.3,602z"/>
	<path class="st19" d="M567,660l1,21l12-1l-3-20H567z"/>
	<path class="st19" d="M360,600l3,6l19-12l-6-8l-16,10v1V600z"/>
	<path class="st19" d="M322,132l7,20l10-3l-7-21L322,132z"/>
	<path class="st19" d="M50.4,303l6,9L73,302l-6-10L50.4,303z"/>
	<path class="st19" d="M261,695l2,12l14-3l-4-18l-7,1l1,7L261,695z"/>
	<path class="st19" d="M709,513l1,17l10-1v-7l7-1l-1-8H709z"/>
	<path class="st19" d="M204,464l10,3l4-21l-10-2L204,464z"/>
	<path class="st19" d="M349,536l5,8l-5,3l5,8l9-6l-3-4l5-3l-8-12L349,536z"/>
	<path class="st19" d="M167,58.1l8,21.6l9-3.3l-8-21.7L167,58.1z"/>
	<path class="st19" d="M234,413l10,16l10-7l-11-16L234,413z"/>
	<path class="st19" d="M174,663l5,14l17-1l-2-10L174,663z"/>
	<path class="st19" d="M141,271l2,18l18-1v-8l-14-1l-1-8H141z"/>
	<path class="st19" d="M392,155l11,4l6-16l-12-4L392,155z"/>
	<path class="st19" d="M64.7,421l11.6,1l-0.2,2h10.5l0.5-9l-22.3-3L64.7,421z"/>
	<path class="st19" d="M12.5,324l1.4,16l10.5,1l-1.3-21h-4.2L12.5,324z"/>
	<path class="st19" d="M400,715h29v-7h-29V715z"/>
	<path class="st19" d="M149,643l7,3l10-21l-8-3l-9,15l2,2L149,643z"/>
	<path class="st19" d="M414,360l13,14l8-8l-14-13L414,360z"/>
	<path class="st19" d="M224,540l18,9l4-9l-18-9L224,540z"/>
	<path class="st19" d="M329,541l6,9l8-6l-3-5l4-3l-6-9l-9,5l4,6L329,541z"/>
	<path class="st19" d="M441,269l7,9l13-9l-2-2l3-2l-5-6l-4,3l-1-1L441,269z"/>
	<path class="st19" d="M231,651l4,1l-1,7l7,1l2-25h-4l-1,3h-4L231,651z"/>
	<path class="st19" d="M740,425l20,3l2-9l-21-3L740,425z"/>
	<path class="st19" d="M168,195l1,12l16-1v-12L168,195z"/>
	<path class="st19" d="M349,448l2,17l11-1l-1-17L349,448z"/>
	<path class="st19" d="M50.2,660l18.3,1l1.2-14l-6.8-2l-3.2,5l0.3,3l-8.4-1L50.2,660z"/>
	<path class="st19" d="M10.5,666l2.2,1l-0.4,4l7.7,1l3.8,1l0.1-3h2.4l0.9-4h2.1l0.7-5l-18.2-3L10.5,666z"/>
	<path class="st19" d="M434,468l19,1v-11h-19V468z"/>
	<path class="st19" d="M361,353l3,9l19-6l-2-9L361,353z"/>
	<path class="st19" d="M214,190l1,10l17-1l-1-11L214,190z"/>
	<path class="st19" d="M112,251v9l21-1l-1-9L112,251z"/>
	<path class="st19" d="M425,539l4,10l16-6l-3-10L425,539z"/>
	<path class="st19" d="M72.9,465l16,2l2-13l-7.1-1l-0.7,4l-8.9-1L72.9,465z"/>
	<path class="st19" d="M180,30l8,6.3l10-14l-8-6.2L180,30z"/>
	<path class="st19" d="M341,21.2l2,11.1l16-3l-2-11.1L341,21.2z"/>
	<path class="st19" d="M438,41.2l10,1.5l2-17.1l-10-1.5L438,41.2z"/>
	<path class="st19" d="M37.7,691l19.7,2l1-9l-19.7-2L37.7,691z"/>
	<path class="st19" d="M36.7,697l13,2l-0.2,3l1.5,6l6.4-1l-1.2-3l0.7-8l0.5-3l-19.7-2L36.7,697z"/>
	<path class="st19" d="M303,462l2,9l18-4l-2-9L303,462z"/>
	<path class="st19" d="M207,49.3l9,6.5l10-13l-8-7L207,49.3z"/>
	<path class="st19" d="M366,16.2l2,10.8l16-3.5l-3-10.8L366,16.2z"/>
	<path class="st19" d="M16,8.8l3.8,7.6l-1.4,0.7l4.1,8.2l8.2-4.1l-3.3-6.6l2.7-1.4l-4.5-9.1L16,8.8z"/>
	<path class="st19" d="M402,49.7l10,3.2l5-16.2l-10-3.2L402,49.7z"/>
	<path class="st19" d="M221,134l8,7l12-12l-9-7L221,134z"/>
	<path class="st19" d="M65.3,622l10.1,5l1.2-2l4.6,2l2.1-5l1.6-4l-14.7-6L65.3,622z"/>
	<path class="st19" d="M376,126l10,3l6-16l-10-3L376,126z"/>
	<path class="st19" d="M481,96.4l3,9.6l18-5l-2-6l-1,0.4l-1-3L481,96.4z"/>
	<path class="st19" d="M187,523l16,9l5-11l-17-5L187,523z"/>
	<path class="st19" d="M-2.5,17.5l3.8,7.9l-1.8,0.9l4.1,8.4l7.9-3.8l-3.2-6.8l2.8-1.3l-4.6-9.6L-2.5,17.5z"/>
	<path class="st19" d="M390,10.9l2,10.4l16-3.3l-2-10.4L390,10.9z"/>
	<path class="st19" d="M354,145l17,5l3-9l-17-5L354,145z"/>
	<path class="st19" d="M109,421l18,2l1-9l-18-2L109,421z"/>
	<path class="st19" d="M35.2,710l5.3,1l10.5-3l-1.5-6H47l0.2-4l-10.5-1L35.2,710z"/>
	<path class="st19" d="M434,64.6l10,1.5l3-16.3l-11-1.5L434,64.6z"/>
	<path class="st19" d="M243,139l2,3l17,4l-3-15l-12,4L243,139z"/>
	<path class="st19" d="M319,114l10,2l3-15l-10-2.5L319,114z"/>
	<path class="st19" d="M239,114l3,12l13-3l-3-12L239,114z"/>
	<path class="st19" d="M41.2,673l10.4,1l-0.2-3l9,1l1.2-8H45L41.2,673z"/>
	<path class="st19" d="M365,75.8l10,3.2l4-14.7l-10-3.1L365,75.8z"/>
	<path class="st19" d="M515,727l4,1l2,5l5,1l4-17l-9-2v7h-5L515,727z"/>
	<path class="st19" d="M629,721l1,9l12-2l-1-9h-3l-1-6h-7l1,8H629z"/>
	<path class="st19" d="M372,53.2l10,3l4-14.8l-10-3.1L372,53.2z"/>
	<path class="st19" d="M357,98l10,3l5-14.5l-10-3.1L357,98z"/>
	<path class="st19" d="M107,635l9,3l1,3l8,1l-1-10l-14-5L107,635z"/>
	<path class="st19" d="M328,68.8l10,0.2V53.6l-10-0.2V68.8z"/>
	<path class="st19" d="M318,34.2l8,13.5l8-5.1l-8-13.4L318,34.2z"/>
	<path class="st19" d="M324,479l1,7l5-1l2,7l9-2l-3-13L324,479z"/>
	<path class="st19" d="M347,116l14,4l3-10l-14-4L347,116z"/>
	<path class="st19" d="M324,91.5l10,1.9l3-15.1l-10-1.9L324,91.5z"/>
	<path class="st19" d="M196,652l8,2l2-12l1-10l-6-1v5l-2-1L196,652z"/>
	<path class="st19" d="M348,484l9,1v-17h-9v5V484z"/>
	<path class="st19" d="M195,187l1,12l12-1l-1-12L195,187z"/>
	<path class="st19" d="M90.5,689l2.5,10l13-3l-7.7-10l-3.3-5l-4.5,3V689z"/>
	<path class="st19" d="M334,160l7,14l9-5l-7-14L334,160z"/>
	<path class="st19" d="M58.1,454l1.4,10l13.4,1l1.3-9l-6.9-2H58.1z"/>
	<path class="st19" d="M443,253l6,7l13-10l-4-4l-1,1l-2-2l-1,1v-1l-2,1l-1-1l-5,4L443,253z"/>
	<path class="st19" d="M203,152l7,6l10-11l-7-7L203,152z"/>
	<path class="st19" d="M308,682l5,14l7-3l-1-3l6-2l-4-7l-3-1L308,682z"/>
	<path class="st19" d="M600,327l1,10l13-2l-1-3h2l-1-8L600,327z"/>
	<path class="st19" d="M436,416l5,15l8-2l-4-16L436,416z"/>
	<path class="st19" d="M397,526l8,8l5-4l2,3l6-6l-6-6l-5,4l-4-5L397,526z"/>
	<path class="st19" d="M96.3,197l2.7,6l16-7l-4-8l-11.4,5l1.4,2L96.3,197z"/>
	<path class="st19" d="M514,541l8,2l2-4l5,2l3-9l-7-2l-1,3l-7-2L514,541z"/>
	<path class="st19" d="M95.5,472l13.5,7l2-3l1,1l3-5l-15.4-8L95.5,472z"/>
	<path class="st19" d="M53.9,647l5.8,3l3.2-5l6.8,2l4.1-3l-6.2-2l0.1-4l-7.7-3L53.9,647z"/>
	<path class="st19" d="M727,434l29,14l3-5l-18-8L727,434z"/>
	<path class="st19" d="M312,264l12,5l5-10l-12-5L312,264z"/>
	<path class="st19" d="M217,282l4,10l11-5l-2-6l3-1l-1-4L217,282z"/>
	<path class="st19" d="M738,561l1,16h9l-1-17L738,561z"/>
	<path class="st19" d="M16.6,685l18.2,2l2.2-9l-7.8-1l-0.3,3l-10.2-2L16.6,685z"/>
	<path class="st19" d="M739,587l1,16l8-1l-1-16L739,587z"/>
	<path class="st19" d="M220,393h3l-1,4l6,1l1-4h2l1-6l-3-1l1-4l-3-4l-5,5L220,393z"/>
	<path class="st19" d="M474,593l2,1l17,9l3-5l-19-10L474,593z"/>
	<path class="st19" d="M25.4,674l12.2,2l4-13l-9.3-1l-2.8,9l-3.2-1L25.4,674z"/>
	<path class="st19" d="M430,483l10,11l7-5l-10-12L430,483z"/>
	<path class="st19" d="M466,232l4,5h-3l1,7l11-1v-6h-2l-1-2l1-1l-5-6L466,232z"/>
	<path class="st19" d="M448,220l6,7l11-10l-6-7L448,220z"/>
	<path class="st19" d="M464,200l6,7l11-10l-6-6L464,200z"/>
	<path class="st19" d="M574,256l5,9l11-6l-5-9L574,256z"/>
	<path class="st19" d="M217,157v11h12v-4h2v-4h-2v-3H217z"/>
	<path class="st19" d="M469,257l4,11h1l1,2h-2v1l9-2l-4-14L469,257z"/>
	<path class="st19" d="M334,449l2,15l9-2l-2-14L334,449z"/>
	<path class="st19" d="M807,354l8,6l3-4l2,1l3-5l-9-7L807,354z"/>
	<path class="st19" d="M559,241l10,3l3-11l-10-3L559,241z"/>
	<path class="st19" d="M196,38.4l8,6.2l8-9.7l-9-6.2L196,38.4z"/>
	<path class="st19" d="M348,607l11,1l1-8v-3l-12-1V607z"/>
	<path class="st19" d="M262,447l10,3l4-11l-11-3L262,447z"/>
	<path class="st19" d="M174,222l2,1l-1,3l11,3l1-8h-2l1-3l-11-3L174,222z"/>
	<path class="st19" d="M70.6,288l7,8l8.7-8l-7.2-8L70.6,288z"/>
	<path class="st19" d="M435,714h21v-5l-21-1V714z"/>
	<path class="st19" d="M479,47.2l10,1.3l1-12.1l-10-1.2L479,47.2z"/>
	<path class="st19" d="M169,618v5l5,6l2,2l7-5l-3-8H169z"/>
	<path class="st19" d="M483,465l6,14l7-3l-5-14L483,465z"/>
	<path class="st19" d="M515,323l14,1l1-9l-11-1v3l-3-1L515,323z"/>
	<path class="st19" d="M721,252l8,9l8-7l-8-9L721,252z"/>
	<path class="st19" d="M565,144l9,8l7-7l-9-8L565,144z"/>
	<path class="st19" d="M565,289l12,2l1-9l-12-2L565,289z"/>
	<path class="st19" d="M319,510l3,7l13-5l-3-7L319,510z"/>
	<path class="st19" d="M775,426l9,6l6-8l-9-6L775,426z"/>
	<path class="st19" d="M546,128l8,9l6-7l-8-8L546,128z"/>
	<path class="st19" d="M304,29.4l1,3.7l7-1l3-4.4l-1-8.1l-9,1.1l1,8.5L304,29.4z"/>
	<path class="st19" d="M248,712l2,7l14-3l-1-7L248,712z"/>
	<path class="st19" d="M477,286l4,12l7-2v-3l-2-10L477,286z"/>
	<path class="st19" d="M73.9,199l2.7,6l14.4-6l-2.8-6L73.9,199z"/>
	<path class="st19" d="M866,16.5l6,5.4l7-7.6l-10-8.9l-3,3.4l4,3.5L866,16.5z"/>
	<path class="st19" d="M212,426l7,3l2-11h2v-3l-10-1L212,426z"/>
	<path class="st19" d="M110,441l11,2l1-9l-11-2L110,441z"/>
	<path class="st19" d="M868,332l11,7l5-7l-11-7L868,332z"/>
	<path class="st19" d="M65.9,554l8.8,4l4.7-10l-8.7-4L65.9,554z"/>
	<path class="st19" d="M631,305l8,3l5-11l-8-3L631,305z"/>
	<path class="st19" d="M80.4,691l2.7,10l9.9-2l-2.5-10l-3.6,1L80.4,691z"/>
	<path class="st19" d="M347,505l1,10l10-1v-10L347,505z"/>
	<path class="st19" d="M640,654l1,10l11-2l-1-4h2v-3L640,654z"/>
	<path class="st19" d="M78.4,683l2,8l6.5-1l-0.9-7l-0.3-6l-6.5-1L78.4,683z"/>
	<path class="st19" d="M832,301l9,5l5-8l-9-5L832,301z"/>
	<path class="st19" d="M204,654l7,1l2-12l-7-1L204,654z"/>
	<path class="st19" d="M18,566l9.9,3l3.9-8l-8.4-4L18,566z"/>
	<path class="st19" d="M744,239l8,8l6-6l-8-8L744,239z"/>
	<path class="st19" d="M295,685l2,9l10-2l-2-9L295,685z"/>
	<path class="st19" d="M772,343l7,7l8-8l-3-3l-3,3l-5-4L772,343z"/>
	<path class="st19" d="M171,12.3l2,13.3l12-15.1L171,12.3z"/>
	<path class="st19" d="M736,282l6,6l8-8l-6-6L736,282z"/>
	<path class="st19" d="M588,160l10,7l4-6l-9-7L588,160z"/>
	<path class="st19" d="M504,144l5,8l8-5l-4-8L504,144z"/>
	<path class="st19" d="M657,281l9,5l4-7l-9-5L657,281z"/>
	<path class="st19" d="M112,660l2,7l15-7l-2-3L112,660z"/>
	<path class="st19" d="M515,22.3l8,4.3l4-8l-8-4.3L515,22.3z"/>
	<path class="st19" d="M609,179l6,8l7-5l-5-8L609,179z"/>
	<path class="st19" d="M480,73.2l2,8.4l9-1.7l-1-8.5L480,73.2z"/>
	<path class="st19" d="M437,235l5,5l8-7l-5-5L437,235z"/>
	<path class="st19" d="M766,409l2,4l6-4l4-2l1,3l6-3l1,2h3l-1-5l-5,1L766,409z"/>
	<path class="st19" d="M648,249l5,4l7-8l-5-5L648,249z"/>
	<path class="st19" d="M503,108l2,8l8-3l-3-8L503,108z"/>
	<path class="st19" d="M808,490l4,3l7-12l-4-2L808,490z"/>
	<path class="st19" d="M196,543l10,5l2-5l-9-5L196,543z"/>
	<path class="st19" d="M855,325l4,3l7-9l-4-3L855,325z"/>
	<path class="st19" d="M763,417l9,9l3-2l-8-10L763,417z"/>
	<path class="st19" d="M407,719l1,5l10-1l-1-5L407,719z"/>
	<path class="st19" d="M588,653l11,3l1-4l-11-3L588,653z"/>
	<path class="st19" d="M264,464l8,3l2-5l-8-2L264,464z"/>
	<path class="st19" d="M162,691l4,5l5-4l-3-5L162,691z"/>
	<path class="st19" d="M854,682v5h6v-5H854z"/>
	<path class="st19" d="M726,223l1,5l6-2l-1-5L726,223z"/>
	<path class="st19" d="M780,358l4,3l3-3l-3-4L780,358z"/>
	<path class="st19" d="M543,571l6,2l1-5l-6-2L543,571z"/>
	<path class="st19" d="M472,605l11,5l5-9l-11-6L472,605z"/>
	<path class="st20" d="M219,678l7,1v6h9l1,5l23-3l-1-10v-4l-1-3l-4-1l-2-1l-1-5l-30-3L219,678z"/>
	<path class="st20" d="M136,268h28v-14h5v-8h-7v-8h-6v4h-15v15h-5V268z"/>
	<path class="st20" d="M143,596l4,8l14,12l7-31l-21-6l-2,5l7,3l-2,6l-5-2L143,596z"/>
	<path class="st20" d="M602,515l5,2l2,3l2,3l-2,2l5,1l5,1l3-7l-3-1v-2l-1-5l1-3l8,3l3-9l-15-5l-3,6l-5-2L602,515z"/>
	<path class="st20" d="M47.2,592l17.5,10l5.8-9l-13.9-8l-5-2L47.2,592z"/>
	<path class="st20" d="M224,540l18,9l4-9l-18-9L224,540z"/>
	<path class="st20" d="M37.7,691l19.7,2l1-9l-19.7-2L37.7,691z"/>
	<path class="st20" d="M515,727l4,1l2,5l5,1l4-17l-9-2v7h-5L515,727z"/>
	<path class="st20" d="M629,721l1,9l12-2l-1-9h-3l-1-6h-7l1,8H629z"/>
	<path class="st20" d="M204,654l7,1l2-12l-7-1L204,654z"/>
	<path class="st21" d="M278,92.4l29,78.6l47,73l11,14l14,13l32,22l60,39"/>
	<path class="st22" d="M278,92.4l29,78.6l47,73l11,14l14,13l32,22l60,39"/>
	<path class="st23" d="M92.5,716l-3-12"/>
	<path class="st23" d="M72.5,721L69,709"/>
	<path class="st24" d="M305,622l-25-14"/>
	<path class="st25" d="M802,385l-2,18"/>
	<path class="st21" d="M475,326l-60-42l-33-21l-12-13l-10-16l-46-68l-30-74.7"/>
	<path class="st26" d="M92.5,716l-3-12"/>
	<path class="st26" d="M72.5,721L69,709"/>
	<path class="st27" d="M92.5,716l-3-12"/>
	<path class="st27" d="M72.5,721L69,709"/>
	<path class="st28" d="M305,622l-25-14"/>
	<path class="st29" d="M802,385l-2,18"/>
	<path class="st22" d="M475,326l-60-42l-33-21l-12-13l-10-16l-46-68l-30-74.7"/>
	<path class="st30" d="M366,682l18,7v6l35,1"/>
	<path class="st30" d="M405,651l20,4l-1,13l5,4v7h2l1-5h2l-2,8l-37-7l2-9l4,1"/>
	<path class="st30" d="M424,653l-12-14l-5-9l-10,10l-1,11l3,10l-15,7l-3,13"/>
	<path class="st31" d="M465,598l2,2l2,1l21,12l3-9l-20-11l5-8l-5-3L465,598z"/>
	<path class="st31" d="M29.8,659l13.8,2l4.6-11l-15.5-5L29.8,659z"/>
	<path class="st32" d="M196,665l1,11l21,1l2-19l-24-4V665z"/>
	<path class="st32" d="M140,726l9-4l5-3l-10-6L140,726z"/>
	<path class="st32" d="M140,675l4,7l2-1l3-1l-2-7l-3-1l-2,2L140,675z"/>
	<path class="st33" d="M291,129l17-1l30-7l9-52.1V39.7l53-11.2l32-6.7l27-5.8"/>
	<path class="st33" d="M347,39.7l-5,0.2l-12-20l-3-4.4l-21,4"/>
	<path class="st33" d="M400,28.5l-31,100l-31-7"/>
	<path class="st33" d="M795,421l-10-6l-8,1"/>
	<path class="st33" d="M432,21.8l-1,14.9L427,66l6,1.7"/>
	<path class="st33" d="M483,145l-7-1l-24-26l-9,8l-1,10v12l-7,22"/>
	<path class="st33" d="M293,104l6-10.6l-1-40l2-18.9v-9.8l-2-12"/>
	<path class="st34" d="M590,363l-35-22l-19-3l-21,4l-18-3"/>
	<path class="st33" d="M54.6,408l1.6-8l2.6-2l28.7,2"/>
	<path class="st33" d="M483,145l14,7l42,29l67,22"/>
	<path class="st33" d="M219,401l11,9l6,12"/>
	<path class="st34" d="M96.7,248l3.2,3l8.1,11"/>
	<path class="st33" d="M204,307l1-4l10-8l16-6"/>
	<path class="st33" d="M597,568l-1,4v15l-2,55l9,11h23h29v8l-3,3l-39,6"/>
	<path class="st34" d="M748,699l1,5v19l-18-1l1-13"/>
	<path class="st33" d="M112,486l5-11l5-28l3-19l-18-5l-3-4l1-10l-3-5l2-12v-8"/>
	<path class="st33" d="M32,391l49-37l6.2-4l-5.6-16L74,318l-3.2-4l-36.2,25h-8.3"/>
	<path class="st33" d="M23.2,312l0.6,5l2.5,22"/>
	<path class="st33" d="M26.3,339l3.2,27l2.5,25"/>
	<path class="st33" d="M32,391l3.9,12l7.8,4l10.9,1l31.7,3"/>
	<path class="st33" d="M33.6,441l1.4,5l4.9,2l33.8-1l16.5,3l2.2,2l0.3,3l-0.4,7l-0.1,2l-2.6,12"/>
	<path class="st33" d="M86.3,411l6.8,4l0.3,4l-3,7l-9.4,1l-37.6,6l-8.8,3l-1,5"/>
	<path class="st33" d="M624,365l-1-8v-15l-3-18l-2-7l-12-12"/>
	<path class="st33" d="M274,212l-10-32l-21,3l3,22l2,6"/>
	<path class="st33" d="M351,419l-11,9l-6,4l-12,2l-2,6l1,15l-21,5v11l-3,16l18,1l2,15l-26,8l-37,3l-4-16l13-3l24-5l10-3"/>
	<path class="st33" d="M787,459l8,5l11,7l7,2l4-3l1-8l-2-12l-12-9l-6-1v-12"/>
	<path class="st33" d="M713,534l-1,9l29-2l2-6l3-11"/>
	<path class="st33" d="M255,451l9,10"/>
	<path class="st33" d="M358,421l2-21l-4-20l-55,13"/>
	<path class="st33" d="M752,525l-6-1l-5-1l-10-1l-1-8l-1-12l15-1l3-2"/>
	<path class="st33" d="M662,464l-19,2"/>
	<path class="st34" d="M490,613l-1,5"/>
	<path class="st34" d="M478,585l22,13l-10,15"/>
	<path class="st33" d="M756,611l-1-18l3-7l7-6l34-2h36l16,10l4,19L756,611h-23l-2-38l-3-21l22-5l63-2l12,12l4,8l45-3"/>
	<path class="st33" d="M214,398l5,3"/>
	<path class="st34" d="M469,601l-3,4"/>
	<path class="st33" d="M529,357c22,13,48,13,74,18c21,4,40,6,61,9c15,3,29,5,44,8c36,5,71,10,107,7c16-1,30-4,46-6c8-1,15-4,23-6
		c1,0,2-1,2.6-1.6"/>
	<path class="st33" d="M407,468l7-4l27,6l17,1l4,4l10,24l7,7l12-9l6-17"/>
	<path class="st33" d="M795,464l-19,31"/>
	<path class="st33" d="M800,424l-5-3"/>
	<path class="st33" d="M562,420l-56,11"/>
	<path class="st33" d="M687,583l7,6l25-1"/>
	<path class="st33" d="M662,454v10v14"/>
	<path class="st33" d="M791,449l-15-16l-17-19l-15-6l-93-14"/>
	<path class="st33" d="M633,459l3-3v-12l12-1l14,11l17,8l15,12l7,5l2,24h21"/>
	<path class="st33" d="M656,484l-20,3l-27,4l-1,8"/>
	<path class="st33" d="M212,430l2,11"/>
	<path class="st33" d="M431,373l11,3l58-12"/>
	<path class="st33" d="M270,374l75-20"/>
	<path class="st33" d="M639,597l-3,6l-3,27l-26,1l-5-28h34"/>
	<path class="st33" d="M607,567l1,7l29,18l2,5"/>
	<path class="st33" d="M197,311l7-4l59-16l5,12l1,5v11l7,5l11-1l15-8l38-9"/>
	<path class="st33" d="M865.5,728.5c-0.2-1.5-0.3-3-0.5-4.5"/>
	<path class="st33" d="M768,389l-8-3l-22-3l-23-4l-28-4l-36-5l-27-5l-6-1l-7,2"/>
	<path class="st33" d="M273,352l70-18"/>
	<path class="st33" d="M210,428l2,2l30,7l10,10l3,4l4-10"/>
	<path class="st33" d="M743,542l46-3"/>
	<path class="st33" d="M685,590h-19"/>
	<path class="st33" d="M419,482l-8,8l5,7l-6,6l-18,21l14,16l3,3l11-4l3,1l4,11l15-5"/>
	<path class="st33" d="M557,402l-65,15"/>
	<path class="st35" d="M262,113l4,1l22,19l3-4l3-11v-11"/>
	<path class="st35" d="M255,110l1-10v-4.6"/>
	<path class="st35" d="M259,115l-4-5l-6-7"/>
	<path class="st35" d="M169,238l6,5l11,4h14"/>
	<path class="st36" d="M342,615l8,13l4,33"/>
	<path class="st36" d="M83.5,631l-3.8,12l0.8,16"/>
	<path class="st36" d="M95.3,678l2.2-19l8.5-25"/>
	<path class="st36" d="M75.9,733l-3.4-12"/>
	<path class="st36" d="M95.1,729l-2.6-13"/>
	<path class="st36" d="M355,612l-5,16"/>
	<path class="st36" d="M80.5,659l-2.9,24l2.8,12"/>
	<path class="st37" d="M197,676v1l3,7l3,8l9,13l7,6l13,1h5l17-2l7-1l25-5l9-7l-2-13l-3-21"/>
	<path class="st37" d="M111,659v5l3,7l7,10l7,11"/>
	<path class="st37" d="M248,211l12,9l13,45"/>
	<path class="st37" d="M179,551l-16-4l-32,1l-18-3l-41.4-15"/>
	<path class="st37" d="M685,590l-2,15v12l-2,13l-7,11l-11,16l-4,16l-6,13l-7,1v5v6v5"/>
	<path class="st37" d="M52.9,487l-10.5,27"/>
	<path class="st37" d="M42.4,514L3.5,494"/>
	<path class="st37" d="M166,622l2,8l-14,25l-10,17"/>
	<path class="st37" d="M142,674l-10-12l-4-5l-1-2v-24l-2-23l-2-21l-1-7"/>
	<path class="st37" d="M493,307l8,1h18l26,2h54l7-5l59-51l51-39h4l2,4l1,5l-1,5l24,24l33,32"/>
	<path class="st37" d="M154,655l18,6l22,4h2"/>
	<path class="st37" d="M290,663l-20,1l-11-1l-14-1l-25-4"/>
	<path class="st37" d="M202,664l-6-10"/>
	<path class="st37" d="M196,665l6-1"/>
	<path class="st37" d="M220,658l-9,1l-4,2l-5,3"/>
	<path class="st37" d="M290,271l9,8l4,5l8-2"/>
	<path class="st37" d="M196,654l-1-3l-1-1l-6-7l-6-3"/>
	<path class="st37" d="M43.6,661l17.1,1l12.9-1l4.9-2h2h17H111l17-2"/>
	<path class="st37" d="M127,631l-18-5l-22-9l-20.3-7"/>
	<path class="st37" d="M146,687v-6"/>
	<path class="st37" d="M40.6,597l31-67"/>
	<path class="st37" d="M106,568h-6.6l-7.9,8l-8.9,11l-9.9,14l-6,9"/>
	<path class="st37" d="M166,622l-11-7l-7-7l-9-13l-10-13l-7-2l-4-7l-12-5"/>
	<path class="st37" d="M149,507l-18,41"/>
	<path class="st37" d="M151,20.8l6-8.9l5-3.6L188,4l58,45l-11,22.5l-6,11.2"/>
	<path class="st37" d="M161,183l7,3l63-6"/>
	<path class="st37" d="M183,525l4-11l5-15l8-37l10-34l4-30l1-37l-18-50l-21-57"/>
	<path class="st37" d="M250,246l1-16l-3-19l-57,10"/>
	<path class="st37" d="M363,565l-35-10l-87-26l-5-2"/>
	<path class="st37" d="M288,133l18,21l34,56l12,12l20,12l19,8l11,4"/>
	<path class="st37" d="M381,561l-9-11l-4-31l-29-2"/>
	<path class="st37" d="M402,246l27,54l38,17l8,3l6-1l9-8l3-4l-1-22l-6-53l2-53l-2-10"/>
	<path class="st37" d="M139,729l13-4l4-1l12-13"/>
	<path class="st37" d="M760,513l-6-11l-7-3l-15-5l-20-13l-11-2l-36,1l-3-2l-19-12l-10-7l-10-2l-20,1l-2,8"/>
	<path class="st37" d="M685,561l2,22l-2,7"/>
	<path class="st37" d="M354,661l-8-2l-37-7"/>
	<path class="st37" d="M110,48.7l20,4.9l6-0.9l23-25.5"/>
	<path class="st37" d="M280,608l-65-36l10-23"/>
	<path class="st37" d="M155,189l4-53l4-32l4-24.1l-2-7.2"/>
	<path class="st37" d="M354,661l2,11l-1,5v9v19"/>
	<path class="st37" d="M470.2,1.3C462,25,462,50,462,75c0,10,0,20,3,29c5,13,11,25,17,38c4,8,3,16,4,25c0,2-1,4-2,5
		c-29,24-55,49-82,74"/>
	<path class="st37" d="M106,568l-3-9l-8.5-12l-16.3-11l-6.6-6"/>
	<path class="st37" d="M139,729l1-3"/>
	<path class="st37" d="M183,525l-4,26l-14,60l1,11"/>
	<path class="st37" d="M295,697h16"/>
	<path class="st37" d="M346,659l-12-11l-5-12l-24-14"/>
	<path class="st37" d="M372,550l-9,15l-19,21v7"/>
	<path class="st37" d="M677,562l-6-67l-15-11l-30-18l-13-2l-12,2l-15,1h-9l-6-5l-9-42l-5-18l-2-8l-3-7l-7-2l-82,16h-9l-7-4l-5-21
		l-13-76"/>
	<path class="st37" d="M82.6,55.2l5.8,2.8l6.3,0.8l7.3-2l5-3.8l3-4.3l2-8l-1-6.4l-3-5.3l-4-4.4l-6.3-2.5l-4.5-0.5l-7.9,2l-5.2,3.8
		L78,30l-2.6,6.3l0.3,9.1l2.9,5.8L82.6,55.2"/>
	<path class="st37" d="M30.6,473l7.3,3l8.6,3l6.4,8"/>
	<path class="st37" d="M71.6,530l-29.2-16"/>
	<path class="st37" d="M42.4,514l-40,73"/>
	<path class="st37" d="M332,674l23,3"/>
	<path class="st37" d="M66.1,469l-13.2,18"/>
	<path class="st35" d="M885.2,343.9C880,355,871,360,860,363c-7,2-13,5-20,6"/>
	<path class="st35" d="M294,107c-8-34-17-69-25.9-102.8"/>
	<path class="st35" d="M276,324l4-14l6-25l2-6l2-8l7-21l3-14l1-10l-1-13l-3-14l-7-21l-12-29l-14-25l-5-9l3-2"/>
	<path class="st35" d="M30.5,716l10.9-1l14.2-3l13.4-3l14-3l4.7-1l1.8-1l13.5-4l18-5l7-3l18-5"/>
	<path class="st35" d="M294,107l-18-5l-14-3.1l-6,1.1l-7,3l-12,7l-18,10"/>
	<path class="st35" d="M262,277l5,6l7,3l5,1l4-4l5-4"/>
	<path class="st35" d="M342,615v-13l2-9l4-4l15-13l18-15l25-21l12-10l16-13l9-4"/>
	<path class="st35" d="M176,254l24-7l13-2l10-1l9-1h8l10,3l5,12l7,19l3,7l4,12l5,13l2,15"/>
	<path class="st35" d="M155,189l11,40l3,9l7,16"/>
	<path class="st35" d="M66.7,610l-13.5,29l-5,11l-4.6,11l-5.7,17l-2.4,10l-2.4,10l-2.6,18"/>
	<path class="st35" d="M262,59.9l-7,13.4l-2,4.6l-1,1l-2,2.7l-9,14.2L226,112l-7,8l-39,44l-19,19l-6,6"/>
	<path class="st35" d="M355,705l13,1l28-1l91-1l78,2"/>
	<path class="st35" d="M152,694l7,8l9,9l14,10l9,6"/>
	<path class="st35" d="M443,513l-13-16l-11-15l-12-14l-13-13l-22-24l-14-10l-7-2l-6-3h-7l-15,3l-15,3l-17-1l-10-4l-7-7l-3-8l-1-13
		v-15l3-22l3-28"/>
	<path class="st35" d="M800,403v21l-2,4l-7,21l-4,10l-8,18l-10,21l-9,15l-8,12l-9,17l-15,10l-21,8l-22,1l-8,1l-39,2l-31,3l-10,1
		l-23-1l-12-3l-16-5l-37-15l-29-12l-27-15l-10-4"/>
	<path class="st35" d="M66.7,610l-11.6-6l-14.5-7"/>
	<path class="st35" d="M264,39.6l-2,10.1v10.2l-2,15.5l-2,10.2l1,4l2,2.6l2,2.1l7,3.4l9,3.3l14,3"/>
	<path class="st35" d="M840,369h-17l-6,2l-9,6l-6,8"/>
	<path class="st35" d="M152,694l-6-7"/>
	<path class="st35" d="M262,98.9l-6-3.5l-1-6.7v-7.6l-3-2.2"/>
	<path class="st38" d="M883.8,692c-11.8,1-23.8,0-35.8,1c-34,2-67,3-101,6c-27,2-53,1-80,3c-21,1-42,2-63,4c-13,1-26,0-39,0"/>
	<path class="st38" d="M264,39.6l4,12l10,40.8"/>
	<path class="st38" d="M342,615l-117-66l-42-24l-34-18l-37-21l-15.3-8l-7.1-2l-23.5-7l-10.7,1l-24.8,3l-18.3,2"/>
	<path class="st38" d="M284,91.3l-8-31.4l-6-26.2l-3-20.8"/>
	<path class="st38" d="M471,332l12,7l13,7l6,2l8,3l19,6"/>
	<path class="st38" d="M565,706l-1-33l-12-18l-28-18l-35-19l-23-13l-30-17l-18-6l-14,4l-44,25l-5,1l-13,3"/>
	<path class="st38" d="M529,357c63,16,127,24,193,35c12,2,24,3,36,4c10,1,21,1,31,2c20,1,39-2,59-5c10-2,19-3,29-6c4-1,6-3,9.7-3.9"
		/>
	<path class="st38" d="M885.2,366.5C866,375,847,384,826,387c-14,2-28,4-42,3c-18-1-36-3-54-5c-58-10-112-17-171-27
		c-23-4-43-11-64-20c-7-4-13-8-20-12"/>
	<path class="st35" d="M394,709l2-4"/>
	<path class="st39" d="M465,598l2,2l2,1l21,12l3-9l-20-11l5-8l-5-3L465,598z"/>
	<path class="st40" d="M29.8,659l13.8,2l4.6-11l-15.5-5L29.8,659z"/>
	<path class="st39" d="M196,665l1,11l21,1l2-19l-24-4V665z"/>
	<path class="st39" d="M140,726l9-4l5-3l-10-6L140,726z"/>
	<path class="st39" d="M140,675l4,7l2-1l3-1l-2-7l-3-1l-2,2L140,675z"/>
	<path class="st41" d="M329,636l13-21"/>
	<path class="st42" d="M329,636l13-21"/>
	<path class="st41" d="M159,702l9-6l3,2l3-1"/>
	<path class="st42" d="M159,702l9-6l3,2l3-1"/>
	<path class="st41" d="M5.2,718l-0.7-33"/>
	<path class="st42" d="M5.2,718l-0.7-33"/>
	<path class="st43" d="M323,679v-6l9,1"/>
	<path class="st27" d="M323,679v-6l9,1"/>
	<path class="st41" d="M178,678l19-1"/>
	<path class="st42" d="M178,678l19-1"/>
	<path class="st43" d="M240,511v-3"/>
	<path class="st27" d="M240,511v-3"/>
	<path class="st41" d="M173,693l8-1"/>
	<path class="st42" d="M173,693l8-1"/>
	<path class="st41" d="M242,520l-2-9"/>
	<path class="st42" d="M242,520l-2-9"/>
	<path class="st43" d="M172,661l6,17l2,9"/>
	<path class="st27" d="M172,661l6,17l2,9"/>
	<path class="st43" d="M149,722l3,3"/>
	<path class="st27" d="M149,722l3,3"/>
	<path class="st41" d="M182,640l-5,6l-6,13l1,2"/>
	<path class="st42" d="M182,640l-5,6l-6,13l1,2"/>
	<path class="st43" d="M293,684l26-4l4-1"/>
	<path class="st27" d="M293,684l26-4l4-1"/>
	<path class="st43" d="M309,652l-14,1l-4,3l-1,7"/>
	<path class="st27" d="M309,652l-14,1l-4,3l-1,7"/>
	<path class="st43" d="M311,697l19-6l-7-12"/>
	<path class="st27" d="M311,697l19-6l-7-12"/>
	<path class="st44" d="M261,709l-2-43v-3"/>
	<path class="st45" d="M261,709l-2-43v-3"/>
	<path class="st41" d="M180,687l1,5l6,9"/>
	<path class="st42" d="M180,687l1,5l6,9"/>
	<path class="st41" d="M241,529l-2-8"/>
	<path class="st42" d="M241,529l-2-8"/>
	<path class="st43" d="M174,697l6,5l1-3l-8-6"/>
	<path class="st27" d="M174,697l6,5l1-3l-8-6"/>
	<path class="st43" d="M87,617l-3.5,14"/>
	<path class="st27" d="M87,617l-3.5,14"/>
	<path class="st43" d="M80.4,695l2.6,11"/>
	<path class="st27" d="M80.4,695l2.6,11"/>
	<path class="st43" d="M239,521l3-1"/>
	<path class="st27" d="M239,521l3-1"/>
	<path class="st43" d="M106,634l3-8"/>
	<path class="st27" d="M106,634l3-8"/>
	<path class="st41" d="M240,508l-1-7l11-3"/>
	<path class="st42" d="M240,508l-1-7l11-3"/>
	<path class="st46" d="M236,527l-49-13"/>
	<path class="st47" d="M236,527l-49-13"/>
	<path class="st48" d="M291,129l17-1l30-7l9-52.1V39.7l53-11.2l32-6.7l27-5.8"/>
	<path class="st49" d="M291,129l17-1l30-7l9-52.1V39.7l53-11.2l32-6.7l27-5.8"/>
	<path class="st48" d="M347,39.7l-5,0.2l-12-20l-3-4.4l-21,4"/>
	<path class="st49" d="M347,39.7l-5,0.2l-12-20l-3-4.4l-21,4"/>
	<path class="st48" d="M400,28.5l-31,100l-31-7"/>
	<path class="st49" d="M400,28.5l-31,100l-31-7"/>
	<path class="st48" d="M795,421l-10-6l-8,1"/>
	<path class="st49" d="M795,421l-10-6l-8,1"/>
	<path class="st48" d="M432,21.8l-1,14.9L427,66l6,1.7"/>
	<path class="st49" d="M432,21.8l-1,14.9L427,66l6,1.7"/>
	<path class="st48" d="M483,145l-7-1l-24-26l-9,8l-1,10v12l-7,22"/>
	<path class="st49" d="M483,145l-7-1l-24-26l-9,8l-1,10v12l-7,22"/>
	<path class="st48" d="M293,104l6-10.6l-1-40l2-18.9v-9.8l-2-12"/>
	<path class="st49" d="M293,104l6-10.6l-1-40l2-18.9v-9.8l-2-12"/>
	<path class="st50" d="M590,363l-35-22l-19-3l-21,4l-18-3"/>
	<path class="st51" d="M590,363l-35-22l-19-3l-21,4l-18-3"/>
	<path class="st48" d="M54.6,408l1.6-8l2.6-2l28.7,2"/>
	<path class="st49" d="M54.6,408l1.6-8l2.6-2l28.7,2"/>
	<path class="st48" d="M483,145l14,7l42,29l67,22"/>
	<path class="st49" d="M483,145l14,7l42,29l67,22"/>
	<path class="st48" d="M219,401l11,9l6,12"/>
	<path class="st49" d="M219,401l11,9l6,12"/>
	<path class="st50" d="M96.7,248l3.2,3l8.1,11"/>
	<path class="st51" d="M96.7,248l3.2,3l8.1,11"/>
	<path class="st48" d="M204,307l1-4l10-8l16-6"/>
	<path class="st49" d="M204,307l1-4l10-8l16-6"/>
	<path class="st48" d="M597,568l-1,4v15l-2,55l9,11h23h29v8l-3,3l-39,6"/>
	<path class="st49" d="M597,568l-1,4v15l-2,55l9,11h23h29v8l-3,3l-39,6"/>
	<path class="st50" d="M748,699l1,5v19l-18-1l1-13"/>
	<path class="st51" d="M748,699l1,5v19l-18-1l1-13"/>
	<path class="st48" d="M112,486l5-11l5-28l3-19l-18-5l-3-4l1-10l-3-5l2-12v-8"/>
	<path class="st49" d="M112,486l5-11l5-28l3-19l-18-5l-3-4l1-10l-3-5l2-12v-8"/>
	<path class="st48" d="M32,391l49-37l6.2-4l-5.6-16L74,318l-3.2-4l-36.2,25h-8.3"/>
	<path class="st49" d="M32,391l49-37l6.2-4l-5.6-16L74,318l-3.2-4l-36.2,25h-8.3"/>
	<path class="st48" d="M23.2,312l0.6,5l2.5,22"/>
	<path class="st49" d="M23.2,312l0.6,5l2.5,22"/>
	<path class="st48" d="M26.3,339l3.2,27l2.5,25"/>
	<path class="st49" d="M26.3,339l3.2,27l2.5,25"/>
	<path class="st48" d="M32,391l3.9,12l7.8,4l10.9,1l31.7,3"/>
	<path class="st49" d="M32,391l3.9,12l7.8,4l10.9,1l31.7,3"/>
	<path class="st48" d="M33.6,441l1.4,5l4.9,2l33.8-1l16.5,3l2.2,2l0.3,3l-0.4,7l-0.1,2l-2.6,12"/>
	<path class="st49" d="M33.6,441l1.4,5l4.9,2l33.8-1l16.5,3l2.2,2l0.3,3l-0.4,7l-0.1,2l-2.6,12"/>
	<path class="st48" d="M86.3,411l6.8,4l0.3,4l-3,7l-9.4,1l-37.6,6l-8.8,3l-1,5"/>
	<path class="st49" d="M86.3,411l6.8,4l0.3,4l-3,7l-9.4,1l-37.6,6l-8.8,3l-1,5"/>
	<path class="st48" d="M624,365l-1-8v-15l-3-18l-2-7l-12-12"/>
	<path class="st49" d="M624,365l-1-8v-15l-3-18l-2-7l-12-12"/>
	<path class="st48" d="M274,212l-10-32l-21,3l3,22l2,6"/>
	<path class="st49" d="M274,212l-10-32l-21,3l3,22l2,6"/>
	<path class="st48" d="M351,419l-11,9l-6,4l-12,2l-2,6l1,15l-21,5v11l-3,16l18,1l2,15l-26,8l-37,3l-4-16l13-3l24-5l10-3"/>
	<path class="st48" d="M787,459l8,5l11,7l7,2l4-3l1-8l-2-12l-12-9l-6-1v-12"/>
	<path class="st48" d="M713,534l-1,9l29-2l2-6l3-11"/>
	<path class="st48" d="M255,451l9,10"/>
	<path class="st48" d="M358,421l2-21l-4-20l-55,13"/>
	<path class="st48" d="M752,525l-6-1l-5-1l-10-1l-1-8l-1-12l15-1l3-2"/>
	<path class="st48" d="M662,464l-19,2"/>
	<path class="st50" d="M490,613l-1,5"/>
	<path class="st50" d="M478,585l22,13l-10,15"/>
	<path class="st48" d="M756,611l-1-18l3-7l7-6l34-2h36l16,10l4,19L756,611h-23l-2-38l-3-21l22-5l63-2l12,12l4,8l45-3"/>
	<path class="st48" d="M214,398l5,3"/>
	<path class="st50" d="M469,601l-3,4"/>
	<path class="st48" d="M529,357c22,13,48,13,74,18c21,4,40,6,61,9c15,3,29,5,44,8c36,5,71,10,107,7c16-1,30-4,46-6c8-1,15-4,23-6
		c1,0,2-1,2.6-1.6"/>
	<path class="st48" d="M407,468l7-4l27,6l17,1l4,4l10,24l7,7l12-9l6-17"/>
	<path class="st48" d="M795,464l-19,31"/>
	<path class="st48" d="M800,424l-5-3"/>
	<path class="st48" d="M562,420l-56,11"/>
	<path class="st48" d="M687,583l7,6l25-1"/>
	<path class="st48" d="M662,454v10v14"/>
	<path class="st48" d="M791,449l-15-16l-17-19l-15-6l-93-14"/>
	<path class="st48" d="M633,459l3-3v-12l12-1l14,11l17,8l15,12l7,5l2,24h21"/>
	<path class="st48" d="M656,484l-20,3l-27,4l-1,8"/>
	<path class="st48" d="M212,430l2,11"/>
	<path class="st48" d="M431,373l11,3l58-12"/>
	<path class="st48" d="M270,374l75-20"/>
	<path class="st48" d="M639,597l-3,6l-3,27l-26,1l-5-28h34"/>
	<path class="st48" d="M607,567l1,7l29,18l2,5"/>
	<path class="st48" d="M197,311l7-4l59-16l5,12l1,5v11l7,5l11-1l15-8l38-9"/>
	<path class="st48" d="M865.5,728.5c-0.2-1.5-0.3-3-0.5-4.5"/>
	<path class="st48" d="M768,389l-8-3l-22-3l-23-4l-28-4l-36-5l-27-5l-6-1l-7,2"/>
	<path class="st48" d="M273,352l70-18"/>
	<path class="st48" d="M210,428l2,2l30,7l10,10l3,4l4-10"/>
	<path class="st48" d="M743,542l46-3"/>
	<path class="st48" d="M685,590h-19"/>
	<path class="st48" d="M419,482l-8,8l5,7l-6,6l-18,21l14,16l3,3l11-4l3,1l4,11l15-5"/>
	<path class="st48" d="M557,402l-65,15"/>
	<path class="st29" d="M262,113l4,1l22,19l3-4l3-11v-11"/>
	<path class="st29" d="M255,110l1-10v-4.6"/>
	<path class="st29" d="M259,115l-4-5l-6-7"/>
	<path class="st29" d="M169,238l6,5l11,4h14"/>
	<path class="st52" d="M342,615l8,13l4,33"/>
	<path class="st52" d="M83.5,631l-3.8,12l0.8,16"/>
	<path class="st52" d="M95.3,678l2.2-19l8.5-25"/>
	<path class="st52" d="M75.9,733l-3.4-12"/>
	<path class="st52" d="M95.1,729l-2.6-13"/>
	<path class="st52" d="M355,612l-5,16"/>
	<path class="st52" d="M80.5,659l-2.9,24l2.8,12"/>
	<path class="st53" d="M197,676v1l3,7l3,8l9,13l7,6l13,1h5l17-2l7-1l25-5l9-7l-2-13l-3-21"/>
	<path class="st54" d="M197,676v1l3,7l3,8l9,13l7,6l13,1h5l17-2l7-1l25-5l9-7l-2-13l-3-21"/>
	<path class="st53" d="M111,659v5l3,7l7,10l7,11"/>
	<path class="st53" d="M248,211l12,9l13,45"/>
	<path class="st53" d="M179,551l-16-4l-32,1l-18-3l-41.4-15"/>
	<path class="st53" d="M685,590l-2,15v12l-2,13l-7,11l-11,16l-4,16l-6,13l-7,1v5v6v5"/>
	<path class="st53" d="M52.9,487l-10.5,27"/>
	<path class="st53" d="M42.4,514L3.5,494"/>
	<path class="st53" d="M166,622l2,8l-14,25l-10,17"/>
	<path class="st53" d="M142,674l-10-12l-4-5l-1-2v-24l-2-23l-2-21l-1-7"/>
	<path class="st53" d="M493,307l8,1h18l26,2h54l7-5l59-51l51-39h4l2,4l1,5l-1,5l24,24l33,32"/>
	<path class="st53" d="M154,655l18,6l22,4h2"/>
	<path class="st53" d="M290,663l-20,1l-11-1l-14-1l-25-4"/>
	<path class="st53" d="M202,664l-6-10"/>
	<path class="st53" d="M196,665l6-1"/>
	<path class="st53" d="M220,658l-9,1l-4,2l-5,3"/>
	<path class="st53" d="M290,271l9,8l4,5l8-2"/>
	<path class="st53" d="M196,654l-1-3l-1-1l-6-7l-6-3"/>
	<path class="st53" d="M43.6,661l17.1,1l12.9-1l4.9-2h2h17H111l17-2"/>
	<path class="st53" d="M127,631l-18-5l-22-9l-20.3-7"/>
	<path class="st53" d="M146,687v-6"/>
	<path class="st53" d="M40.6,597l31-67"/>
	<path class="st53" d="M106,568h-6.6l-7.9,8l-8.9,11l-9.9,14l-6,9"/>
	<path class="st53" d="M166,622l-11-7l-7-7l-9-13l-10-13l-7-2l-4-7l-12-5"/>
	<path class="st53" d="M149,507l-18,41"/>
	<path class="st53" d="M151,20.8l6-8.9l5-3.6L188,4l58,45l-11,22.5l-6,11.2"/>
	<path class="st53" d="M161,183l7,3l63-6"/>
	<path class="st53" d="M183,525l4-11l5-15l8-37l10-34l4-30l1-37l-18-50l-21-57"/>
	<path class="st53" d="M250,246l1-16l-3-19l-57,10"/>
	<path class="st53" d="M363,565l-35-10l-87-26l-5-2"/>
	<path class="st53" d="M288,133l18,21l34,56l12,12l20,12l19,8l11,4"/>
	<path class="st53" d="M381,561l-9-11l-4-31l-29-2"/>
	<path class="st53" d="M402,246l27,54l38,17l8,3l6-1l9-8l3-4l-1-22l-6-53l2-53l-2-10"/>
	<path class="st53" d="M139,729l13-4l4-1l12-13"/>
	<path class="st53" d="M760,513l-6-11l-7-3l-15-5l-20-13l-11-2l-36,1l-3-2l-19-12l-10-7l-10-2l-20,1l-2,8"/>
	<path class="st53" d="M685,561l2,22l-2,7"/>
	<path class="st53" d="M354,661l-8-2l-37-7"/>
	<path class="st53" d="M110,48.7l20,4.9l6-0.9l23-25.5"/>
	<path class="st53" d="M280,608l-65-36l10-23"/>
	<path class="st53" d="M155,189l4-53l4-32l4-24.1l-2-7.2"/>
	<path class="st53" d="M354,661l2,11l-1,5v9v19"/>
	<path class="st53" d="M468.9,5.8C468,7,467,9,467,10c-5,24-5,47-6,70c0,2,1,5,2,7c1,7,1,14,3,20c5,12,11,24,16,36c3,8,3,17,4,25
		c-27,27-56,52-84,78"/>
	<path class="st53" d="M106,568l-3-9l-8.5-12l-16.3-11l-6.6-6"/>
	<path class="st53" d="M139,729l1-3"/>
	<path class="st53" d="M183,525l-4,26l-14,60l1,11"/>
	<path class="st53" d="M295,697h16"/>
	<path class="st53" d="M346,659l-12-11l-5-12l-24-14"/>
	<path class="st53" d="M372,550l-9,15l-19,21v7"/>
	<path class="st53" d="M677,562l-6-67l-15-11l-30-18l-13-2l-12,2l-15,1h-9l-6-5l-9-42l-5-18l-2-8l-3-7l-7-2l-82,16h-9l-7-4l-5-21
		l-13-76"/>
	<path class="st53" d="M82.6,55.2l5.8,2.8l6.3,0.8l7.3-2l5-3.8l3-4.3l2-8l-1-6.4l-3-5.3l-4-4.4l-6.3-2.5l-4.5-0.5l-7.9,2l-5.2,3.8
		L78,30l-2.6,6.3l0.3,9.1l2.9,5.8L82.6,55.2"/>
	<path class="st53" d="M30.6,473l7.3,3l8.6,3l6.4,8"/>
	<path class="st53" d="M71.6,530l-29.2-16"/>
	<path class="st53" d="M42.4,514l-40,73"/>
	<path class="st53" d="M332,674l23,3"/>
	<path class="st53" d="M66.1,469l-13.2,18"/>
	<path class="st29" d="M886.8,342.3C882,348,878,356,871,359c-10,4-21,6-31,10"/>
	<path class="st29" d="M294,107c-8-34-17-69-25.9-102.8"/>
	<path class="st29" d="M276,324l4-14l6-25l2-6l2-8l7-21l3-14l1-10l-1-13l-3-14l-7-21l-12-29l-14-25l-5-9l3-2"/>
	<path class="st29" d="M30.5,716l10.9-1l14.2-3l13.4-3l14-3l4.7-1l1.8-1l13.5-4l18-5l7-3l18-5"/>
	<path class="st29" d="M294,107l-18-5l-14-3.1l-6,1.1l-7,3l-12,7l-18,10"/>
	<path class="st29" d="M262,277l5,6l7,3l5,1l4-4l5-4"/>
	<path class="st29" d="M342,615v-13l2-9l4-4l15-13l18-15l25-21l12-10l16-13l9-4"/>
	<path class="st29" d="M176,254l24-7l13-2l10-1l9-1h8l10,3l5,12l7,19l3,7l4,12l5,13l2,15"/>
	<path class="st29" d="M155,189l11,40l3,9l7,16"/>
	<path class="st29" d="M66.7,610l-13.5,29l-5,11l-4.6,11l-5.7,17l-2.4,10l-2.4,10l-2.6,18"/>
	<path class="st29" d="M262,59.9l-7,13.4l-2,4.6l-1,1l-2,2.7l-9,14.2L226,112l-7,8l-39,44l-19,19l-6,6"/>
	<path class="st29" d="M355,705l13,1l28-1l91-1l78,2"/>
	<path class="st29" d="M152,694l7,8l9,9l14,10l9,6"/>
	<path class="st29" d="M443,513l-13-16l-11-15l-12-14l-13-13l-22-24l-14-10l-7-2l-6-3h-7l-15,3l-15,3l-17-1l-10-4l-7-7l-3-8l-1-13
		v-15l3-22l3-28"/>
	<path class="st29" d="M800,403v21l-2,4l-7,21l-4,10l-8,18l-10,21l-9,15l-8,12l-9,17l-15,10l-21,8l-22,1l-8,1l-39,2l-31,3l-10,1
		l-23-1l-12-3l-16-5l-37-15l-29-12l-27-15l-10-4"/>
	<path class="st29" d="M66.7,610l-11.6-6l-14.5-7"/>
	<path class="st29" d="M264,39.6l-2,10.1v10.2l-2,15.5l-2,10.2l1,4l2,2.6l2,2.1l7,3.4l9,3.3l14,3"/>
	<path class="st29" d="M840,369h-17l-6,2l-9,6l-6,8"/>
	<path class="st29" d="M152,694l-6-7"/>
	<path class="st29" d="M262,98.9l-6-3.5l-1-6.7v-7.6l-3-2.2"/>
	<path class="st55" d="M883.8,692c-11.8,1-23.8,0-35.8,1c-34,2-67,3-101,6c-27,2-53,1-80,3c-21,1-42,2-63,4c-13,1-26,0-39,0"/>
	<path class="st55" d="M264,39.6l4,12l10,40.8"/>
	<path class="st55" d="M342,615l-117-66l-42-24l-34-18l-37-21l-15.3-8l-7.1-2l-23.5-7l-10.7,1l-24.8,3l-18.3,2"/>
	<path class="st55" d="M284,91.3l-8-31.4l-6-26.2l-3-20.8"/>
	<path class="st55" d="M471,332l12,7l13,7l6,2l8,3l19,6"/>
	<path class="st55" d="M565,706l-1-33l-12-18l-28-18l-35-19l-23-13l-30-17l-18-6l-14,4l-44,25l-5,1l-13,3"/>
	<path class="st55" d="M529,357c63,16,127,24,193,35c12,2,24,3,36,4c10,1,21,1,31,2c20,1,39-2,59-5c10-2,19-3,29-6c4-1,6-3,9.7-3.9"
		/>
	<path class="st55" d="M885.2,366.5C866,375,847,384,826,387c-14,2-28,4-42,3c-18-1-36-3-54-5c-58-10-112-17-171-27
		c-23-4-43-11-64-20c-7-4-13-8-20-12"/>
	<path class="st29" d="M394,709l2-4"/>
	<path class="st56" d="M128,530v12h2v-5h4c2,0,3-1,3-3s-1-4-3-4H128z M130,532v3h4c1,0,1,0,1-1s0-2-1-2H130z"/>
	<path class="st57" d="M283,622v7c0,0,0,4,4,4h1v-1h-1c-3,0-3-3-3-3v-5c2,1,4,1,6,0v1h1v-3C288,624,286,624,283,622z M285,625l-1,1
		c0,1,1,1,1,1c1,0,1,0,1-1C286,626,286,625,285,625z M289,625v7c0,0,0,4,4,4s4-4,4-4v-7C294,627,292,627,289,625z M291,628
		c1,0,1,1,1,1c0,1,0,1-1,1c0,0-1,0-1-1L291,628z M294,628c1,0,1,1,1,1c0,1,0,1-1,1c0,0-1,0-1-1L294,628z M287,629c-2,0-2,1-2,2h3v-2
		H287z M291,632h4c0,1-1,2-2,2S291,633,291,632z"/>
	<path class="st56" d="M235,591v12h2v-5h4c2,0,3-2,3-4s-1-3-3-3H235z M237,592v4h4c1,0,1-1,1-2s0-2-1-2H237z"/>
	<path d="M239,668c-1,0-1,1-1,1v3h-4v2h4v8h2v-8h4v-2h-4v-3C240,669,240,668,239,668z"/>
	<path d="M152,248c-1,0-1,1-1,1v3h-4v2h4v8h2v-8h4v-2h-4v-3C153,249,153,248,152,248z"/>
	<path class="st58" d="M578,533h1v5h-1V533z"/>
	<path class="st58" d="M580,533h1v6h-1V533z"/>
	<path class="st58" d="M582,533h1v6h-1V533z"/>
	<path class="st58" d="M584,533h1v6h-1V533z"/>
	<path class="st58" d="M576,535h10H576z"/>
	<path class="st58" d="M576,537h10H576z"/>
	<path class="st58" d="M585,542v1h-1v-1v-1h1V542z"/>
	<path class="st58" d="M579,542v1h-1v-1v-1h1V542z"/>
	<path class="st58" d="M586,540v2h-10v-1h9v-2L586,540z"/>
	<path class="st58" d="M586,533l1-1l1-1c0,0,1,0,1,1l-1,1h-1"/>
	<path class="st58" d="M575,533h12l-1,7l-10-1 M576,534h10l-1,5l-8-1L576,534z"/>
	<path d="M154,589c-1,0-1,1-1,1v3h-4v2h4v8h2v-8h4v-2h-4v-3C155,590,155,589,154,589z"/>
	<path d="M621,504c-1,0-1,1-1,1v3h-4v2h4v8h2v-8h4v-2h-4v-3C622,505,622,504,621,504z"/>
	<path class="st57" d="M616,609l-1,1v1h6v-1l-1-1H616z M615,612v1c0,1,2,2,3,2c2,0,3-1,3-2v-1H615z M615,616c-1,0-2,2-2,3v4h2l5-7
		H615z M622,616l-6,7h7v-4C623,618,623,616,622,616z"/>
	<path d="M58.6,585c-1,0-1,1-1,1v3h-4v2h4v8h2v-8h4v-2h-4v-3C59.6,586,59.6,585,58.6,585z"/>
	<path d="M235,533c-1,0-2,1-2,1c0,1,1,2,2,2s1-1,1-2C236,534,236,533,235,533z M229,538l2,2l3-1l1,4l-2,2c-1,0-1,0-1,1s1,1,1,1h6
		c0,0,1,0,1-1s-1-1-1-1h-3l1-1c1-1,1-2,1-2l-1-4c0-1-1-1-2-1h-1l-3,1l-1-1C230,536,229,537,229,538z"/>
	<path d="M48,680c-1,0-1,1-1,1v3h-4v2h4v8h2v-8h4v-2h-4v-3C49,681,49,680,48,680z"/>
	<path d="M523,717c-1,0-1,1-1,1v3h-4v2h4v8h2v-8h4v-2h-4v-3C524,718,524,717,523,717z"/>
	<path d="M635,715c-1,0-1,1-1,1v3h-4v2h4v8h2v-8h4v-2h-4v-3C636,716,636,715,635,715z"/>
	<path d="M209,641c-1,0-1,1-1,1v3h-4v2h4v8h2v-8h4v-2h-4v-3C210,642,210,641,209,641z"/>
	<path class="st57" d="M118,547c-1,0-1,1,0,1h8c2,0,2-1,0-1H118z M119,549v3h-3c-1,0-1,1,0,1h2l-1,4h2l1-4h5l1,4h1l-1-4h2
		c2,0,2-1,0-1h-2l-1-3h-1l1,3h-5l1-3H119z"/>
	<path d="M53.8,551c-1,0-1,1-1,1v3h-4v2h4v8h2v-8h4v-2h-4v-3C54.8,552,54.8,551,53.8,551z"/>
	<path class="st59" d="M699,13h5v5h-5V13z"/>
	<path class="st39" d="M704,15.5l-1,1.1l-1,0.6h-1l-1-0.6v-1.1v-1l1-0.7h1l1,0.7L704,15.5z"/>
	<path class="st59" d="M700,13.8l4,3.8v-0.3l-4-3.8V13.8z"/>
	<path class="st59" d="M704,13.5l-4,3.8v0.3l4-3.8V13.5z"/>
	<path class="st59" d="M745,16.3h5v5h-5V16.3z"/>
	<path class="st39" d="M749,18.8v1l-1,0.7h-1l-1-0.7l-1-1l1-1.1l1-0.6h1l1,0.6V18.8z"/>
	<path class="st59" d="M745,17l4,3.8v-0.2l-4-3.9V17z"/>
	<path class="st59" d="M749,16.7l-4,3.9v0.2l4-3.8V16.7z"/>
	<path class="st59" d="M884,235h5v5h-5V235z"/>
	<path class="st39" d="M888,238l-1,1h-2l-1-1l1-1v-1h2v1L888,238z"/>
	<path class="st59" d="M884,236l4,4v-1L884,236z"/>
	<path class="st59" d="M888,236l-4,3v1L888,236z"/>
	<path class="st59" d="M844,245h5v5h-5V245z"/>
	<path class="st39" d="M848,247v1l-1,1h-1l-1-1v-1v-1h1h1h1V247z"/>
	<path class="st59" d="M845,246l3,3h1l-4-4V246z"/>
	<path class="st59" d="M848,245l-3,4l4-3L848,245z"/>
	<path class="st59" d="M853,200h5v5h-5V200z"/>
	<path class="st39" d="M858,203l-1,1h-1h-1h-1v-1v-1l1-1h1l1,1L858,203z"/>
	<path class="st59" d="M854,201l4,4v-1L854,201z"/>
	<path class="st59" d="M858,201l-4,3v1L858,201z"/>
	<path class="st59" d="M868,192h5v5h-5V192z"/>
	<path class="st39" d="M872,194v1l-1,1h-1l-1-1v-1v-1l1-1h1l1,1V194z"/>
	<path class="st59" d="M869,192l3,4h1L869,192z"/>
	<path class="st59" d="M872,192l-3,4l4-4H872z"/>
	<path class="st60" d="M731,389h1l1,5l1,1v-1l2-5l1,1l-3,6h-1L731,389z"/>
	<path class="st60" d="M738,397h-1l1-6l1,1L738,397z M738,390c0,0,0-1,1-1v1v1h-1V390z"/>
	<path class="st60" d="M743,397h-1h-1h-1v-1c0-2,1-2,2-2h1v-1h-1h-1v-1h1h1c0,0,1,0,1,1v1v4L743,397z M741,397c1,0,1,0,2-1v-1h-1h-1
		v1V397z"/>
	<path class="st60" d="M754,395c0,1,0,2-1,3h-3h-2l1-7h2c1,0,2,1,3,1V395z M753,395v-2c-1-1-1-1-2-1h-1l-1,5l1,1
		C752,398,753,397,753,395z"/>
	<path class="st60" d="M760,397c0,1,0,1-1,2h-2h-1c0,0,0-1-1-1v-2c0-1,1-1,1-2h2c1,0,1,0,2,1V397z M756,396v2c1,0,1,0,2,1
		c0,0,0-1,1-1v-1v-2c0,0-1,0-1-1C757,394,756,395,756,396z"/>
	<path class="st60" d="M765,400v-4v-1h-1h-1v2l-1,3v-6h1v1v-1h1c1,0,2,0,2,1v1v4H765z"/>
	<path class="st60" d="M774,396l2,1v3h-1h-2c-1,0-1,0-2-1c-1,0-1-1-1-3c0,0,0-1,1-1c0-1,1-1,1-2h2c1,0,2,0,2,1h-2h-2c0,1-1,2-1,3
		c0,0,0,1,1,2c0,0,1,1,2,1c0,0,1,0,1-1v-2h-1V396z"/>
	<path class="st60" d="M778,400v-5h1L778,400z M778,394v-1h1v1H778z"/>
	<path class="st60" d="M785,398c0,1,0,2-1,2c0,1-1,1-2,1c0,0-1,0-1-1c0,0-1,0-1-1v-1c0-1,0-2,1-2c0-1,1-1,2-1l1,1
		C785,397,785,397,785,398z M781,398v1c0,1,1,1,1,1h2v-2v-1l-1-1C782,396,781,397,781,398z"/>
	<path class="st60" d="M787,401l-1-5l1,3c1,0,1,1,1,1v-1l2-3h1l-3,5H787z"/>
	<path class="st60" d="M795,401h-1h-1h-2v-1c0-1,1-2,3-2v-1h-1h-1v-1h1h2v2V401z M793,401c0,0,1,0,1-1v-1h-2v1
		C792,401,792,401,793,401z"/>
	<path class="st60" d="M801,401v-3c0-1-1-1-1-1s0-1-1-1l-1,1v1v3h-1v-5h1v1v-1h1h2v2l1,3H801z"/>
	<path class="st60" d="M807,401v-4l-1-1c-1,0-1,0-2,1v1v3h-1v-5h1h1c0-1,0-1,1-1c0,0,1,0,1,1l1,1v4H807z"/>
	<path class="st60" d="M810,401l-1-6h1V401z M809,394v-1h1v1H809z"/>
	<path class="st60" d="M816,400h-1l-1-7h4v1h-3v2h3v1h-2V400z"/>
	<path class="st60" d="M822,400c-1,0-1,0-2-1c0,0,0-1-1-2c0-1,1-1,1-2c0,0,1-1,2-1c0,0,1,0,1,1c1,0,1,1,1,1v1h-4c0,1,1,1,1,2h1h1
		c0,0,1,0,1-1v1c0,0-1,0-1,1H822z M822,395h-1c-1,1-1,1-1,2l3-1v-1H822z"/>
	<path class="st60" d="M829,398l-1,1h-1h-2v-1c1,1,1,1,2,1l1-1v-1h-1c-1,0-1,0-1-1h-1v-1v-1h2h2l-1,1l-1-1l-1,1v1h1c1,0,1,0,1,1h1
		V398z"/>
	<path class="st60" d="M832,398h1v1h-1c-1,0-2-1-2-2v-3h-1l1-1v-1h1v1h1v1h-1v3v1H832z"/>
	<path class="st60" d="M837,398v-1c0,1,0,1-1,1h-2v-1c-1-1,0-2,2-2h1v-1h-1c0-1,0-1-1-1v1h-1v-1h1h2c0,0,0,1,1,1v4H837z M836,398
		c0,0,0-1,1-1v-1v-1l-1,1h-1l-1,1c1,0,1,0,1,1H836z"/>
	<g>
		<pattern  id="SVGID_17_" xlink:href="#SVGID_8_" patternTransform="matrix(1 0 0 1 1235 17554.2793)">
		</pattern>
		<polygon class="st61" points="888.1,604.2 753,618 730,618 730,588 687,592 639,700 673,699 679,674 713,676 704,632 740,632 
			745,673 759,691 793,691 791,646 880,647 883,661 888.1,660.5 		"/>
		<pattern  id="SVGID_18_" xlink:href="#SVGID_9_" patternTransform="matrix(1 0 0 1 1387 17754.8789)">
		</pattern>
		<polygon class="st62" points="888.1,387.4 860,396 860,454 791,540 888.1,543.5 		"/>
	</g>
	<g>
		<polygon class="st4" points="888.1,387.4 860,396 860,454 791,540 888.1,543.5 		"/>
		<polygon class="st4" points="888.1,604.2 753,618 730,618 730,588 687,592 639,700 673,699 679,674 713,676 704,632 740,632 
			745,673 759,691 793,691 791,646 880,647 883,661 888.1,660.5 		"/>
	</g>
</g>
<g id="car">
	<g>
		<path class="st63" d="M712.2,383H712c0,0-1-3.8-1.1-3.9c-0.7-1.3-1.7-1.2-1.7-1.2h-10.7c-1.4,0-1.7,1-1.7,1l-0.9,4.2h-0.2
			c-0.5,0-0.8,0.4-0.8,0.8v4.5c0,0.5,0.4,0.8,0.8,0.8h0.6v2.2c0,0.5,0.4,0.8,0.8,0.8h1.2c0.5,0,0.8-0.4,0.8-0.8v-2.2h9.7v2.2
			c0,0.5,0.4,0.8,0.8,0.8h1.2c0.5,0,0.8-0.4,0.8-0.8v-2.2h0.3c0.5,0,0.8-0.4,0.8-0.8v-4.5C713.1,383.3,712.7,383,712.2,383z
			 M697.3,379.3c0,0,0.4-0.9,1.4-0.9h10c0,0,0.9-0.1,1.4,0.8c0.1,0.1,0.9,3.5,0.9,3.5h-14.3L697.3,379.3z M698.2,387.1
			c-0.7,0-1.2-0.5-1.2-1.2s0.5-1.2,1.2-1.2s1.2,0.5,1.2,1.2C699.4,386.5,698.8,387.1,698.2,387.1z M705.9,387.1h-3.7
			c-0.6,0-1.1-0.5-1.1-1.1s0.5-1.1,1.1-1.1h3.7c0.6,0,1.1,0.5,1.1,1.1S706.5,387.1,705.9,387.1z M710,387.1c-0.7,0-1.2-0.5-1.2-1.2
			s0.5-1.2,1.2-1.2s1.2,0.5,1.2,1.2C711.2,386.5,710.7,387.1,710,387.1z"/>
		<path class="st63" d="M698.1,385c-0.5,0-0.9,0.4-0.9,0.9c0,0.4,0.2,0.7,0.5,0.8c-0.2-0.1-0.4-0.4-0.4-0.7c0-0.5,0.4-0.8,0.8-0.8
			c0.3,0,0.5,0.2,0.7,0.4C698.8,385.2,698.5,385,698.1,385z"/>
		<path class="st63" d="M710,385c-0.4,0-0.7,0.2-0.8,0.5c0.1-0.2,0.4-0.4,0.7-0.4c0.4,0,0.8,0.4,0.8,0.8c0,0.3-0.2,0.5-0.4,0.7
			c0.3-0.1,0.5-0.4,0.5-0.8C710.9,385.4,710.5,385,710,385z"/>
	</g>
</g>
</svg>
