<svg xmlns="http://www.w3.org/2000/svg" viewBox="0 0 47.85 47.85"><title>Risorsa 1</title><g id="Livello_2" data-name="Livello 2"><g id="Layer_3" data-name="Layer 3"><path d="M32.06.38H15.78A3.89,3.89,0,0,0,13,1.51L1.51,13A3.89,3.89,0,0,0,.38,15.78V32.06a3.89,3.89,0,0,0,1.14,2.75L13,46.33a3.89,3.89,0,0,0,2.75,1.14H32.06a3.89,3.89,0,0,0,2.75-1.14L46.33,34.82a3.89,3.89,0,0,0,1.14-2.75V15.78A3.89,3.89,0,0,0,46.33,13L34.82,1.51A3.89,3.89,0,0,0,32.06.38Z" style="fill:#fff;stroke:#414042;stroke-miterlimit:10;stroke-width:0.75px"/><path d="M31.07,2.67H16.78a4,4,0,0,0-2.83,1.17L3.84,13.95a4,4,0,0,0-1.17,2.83V31.07A4,4,0,0,0,3.84,33.9L13.95,44a4,4,0,0,0,2.83,1.17H31.07A4,4,0,0,0,33.9,44L44,33.9a4,4,0,0,0,1.17-2.83V16.78A4,4,0,0,0,44,13.95L33.9,3.84A4,4,0,0,0,31.07,2.67Z" style="fill:#c9232d"/><text transform="translate(5.71 27.54)" style="font-size:13.55739974975586px;fill:#fff;font-family:ArialMT, Arial">S<tspan x="9.04" y="0" style="letter-spacing:-0.01807995574552665em">T</tspan><tspan x="17.08" y="0" style="letter-spacing:0.00007203169619731733em">O</tspan><tspan x="27.63" y="0" style="letter-spacing:-0.018151987441723968em">P</tspan></text></g></g></svg>