<svg xmlns="http://www.w3.org/2000/svg" viewBox="0 0 32.79 48.72"><title>Risorsa 3</title><g id="Livello_2" data-name="Livello 2"><g id="Layer_3" data-name="Layer 3"><circle cx="9.38" cy="22.51" r="9.38" style="fill:#678d53"/><circle cx="21.62" cy="23.7" r="9.38" style="fill:#678d53"/><circle cx="20.98" cy="12.73" r="11.81" style="fill:#678d53"/><ellipse cx="15.36" cy="14.51" rx="10.87" ry="14.66" transform="translate(-2.81 3.73) rotate(-12.68)" style="fill:#678d53"/><polygon points="16.72 23.96 14.3 23.96 13.06 48.72 19.51 48.72 16.72 23.96" style="fill:#3a2920"/><path d="M7.42,17.72c-.71-.34-.46,0-.46,0s5,4.28,7.42,8c1.87,1,2.38-.44,2.38-.44S8.13,18.06,7.42,17.72Z" style="fill:#3a2920"/><path d="M16.65,16.58a1.65,1.65,0,0,0-1-1s-.26,3.63-.78,8.15c.45,2.07,1.87,1.53,1.87,1.53S16.84,17.34,16.65,16.58Z" style="fill:#3a2920"/><path d="M26.62,22.51c.78,0,.4.24.4.24s-6.4,1.53-10.26,3.74c-2.12,0-1.92-1.48-1.92-1.48S25.84,22.49,26.62,22.51Z" style="fill:#3a2920"/></g></g></svg>