<svg xmlns="http://www.w3.org/2000/svg" viewBox="0 0 51.82 51.82"><title>Risorsa 4</title><g id="Livello_2" data-name="Livello 2"><g id="Layer_3" data-name="Layer 3"><path d="M27.59,5.4H24.23A21.24,21.24,0,0,0,3.05,26.57v21H4.88v-21A19.55,19.55,0,0,1,24.37,7.15h3.09A19.54,19.54,0,0,1,46.94,26.63v21h1.83v-21A21.24,21.24,0,0,0,27.59,5.4Z" style="fill:#808285;stroke:#808285;stroke-miterlimit:10;stroke-width:3px"/><line x1="25.91" x2="25.91" y2="51.82" style="fill:none;stroke:#fff;stroke-miterlimit:10"/><line x1="51.82" y1="25.91" y2="25.91" style="fill:none;stroke:#fff;stroke-miterlimit:10"/><line x1="7.59" y1="7.59" x2="44.23" y2="44.23" style="fill:none;stroke:#fff;stroke-miterlimit:10"/><line x1="44.23" y1="7.59" x2="7.59" y2="44.23" style="fill:none;stroke:#fff;stroke-miterlimit:10"/><line x1="49.83" y1="15.95" x2="5.81" y2="34.28" style="fill:none;stroke:#fff;stroke-miterlimit:10"/><line x1="35.87" y1="49.83" x2="15.95" y2="1.99" style="fill:none;stroke:#fff;stroke-miterlimit:10"/><line x1="35.78" y1="1.95" x2="16.04" y2="49.87" style="fill:none;stroke:#fff;stroke-miterlimit:10"/><line x1="45.95" y1="34.16" x2="1.95" y2="16.04" style="fill:none;stroke:#fff;stroke-miterlimit:10"/><line x1="51.82" y1="33.92" y2="33.92" style="fill:none;stroke:#fff;stroke-miterlimit:10"/><line x1="51.82" y1="41.93" y2="41.93" style="fill:none;stroke:#fff;stroke-miterlimit:10"/><path d="M44,27.19V48.85H7.85V27.19a17,17,0,0,1,16.74-17.1h2.65A17,17,0,0,1,44,27.19Z" style="fill:#58595b"/></g></g></svg>